<svg xmlns="http://www.w3.org/2000/svg" xmlns:svg="http://www.w3.org/2000/svg" id="svg7714" width="48" height="48"><defs id="defs7716"><marker id="Arrow1Send" orient="auto" refX="0" refY="0" style="overflow:visible"><path id="path8565" d="M 0.0,0.0 L 5.0,-5.0 L -12.5,0.0 L 5.0,5.0 L 0.0,0.0 z" transform="scale(0.2) rotate(180) translate(6,0)" style="fill-rule:evenodd;stroke:#000;stroke-width:1pt;marker-start:none"/></marker><filter id="filter12573"><feGaussianBlur id="feGaussianBlur12575" stdDeviation=".294"/></filter></defs><metadata id="metadata7719"/><g id="layer1"><rect style="opacity:1;fill:#d3d7cf;fill-opacity:1;fill-rule:nonzero;stroke:#888a85;stroke-width:.81666368;stroke-linecap:round;stroke-linejoin:round;stroke-miterlimit:4;stroke-dasharray:none;stroke-opacity:1" id="rect12557" width="44.183" height="44.183" x="1.908" y="1.908" rx="2.722" ry="2.722"/><path style="opacity:1;fill:none;fill-opacity:1;fill-rule:nonzero;stroke:#f57900;stroke-width:1.74553573000000006;stroke-linecap:round;stroke-linejoin:round;stroke-miterlimit:4;stroke-dasharray:none;stroke-opacity:1" id="path8539" d="M 19.714285,15.714286 A 6.8571429,6.8571429 0 1 1 5.9999995,15.714286 A 6.8571429,6.8571429 0 1 1 19.714285,15.714286 z" transform="matrix(0.970257,0,0,0.970257,11.025268,-3.890119)"/><path id="path8541" d="M 19.714285,15.714286 A 6.8571429,6.8571429 0 1 1 5.9999995,15.714286 A 6.8571429,6.8571429 0 1 1 19.714285,15.714286 z" transform="matrix(0.9055732,0,0,0.9055732,0.3569168,20.769564)" style="opacity:1;fill:none;fill-opacity:1;fill-rule:nonzero;stroke:#729fcf;stroke-width:1.74553573000000006;stroke-linecap:round;stroke-linejoin:round;stroke-miterlimit:4;stroke-dasharray:none;stroke-opacity:1"/><path style="opacity:1;fill:none;fill-opacity:1;fill-rule:nonzero;stroke:#73d216;stroke-width:1.74553573000000006;stroke-linecap:round;stroke-linejoin:round;stroke-miterlimit:4;stroke-dasharray:none;stroke-opacity:1" id="path8543" d="M 19.714285,15.714286 A 6.8571429,6.8571429 0 1 1 5.9999995,15.714286 A 6.8571429,6.8571429 0 1 1 19.714285,15.714286 z" transform="matrix(0.9055732,0,0,0.9055732,26.356917,20.912421)"/><path style="fill:none;fill-rule:evenodd;stroke:#000;stroke-width:1.5;stroke-linecap:round;stroke-linejoin:round;marker-end:url(#Arrow1Send);stroke-miterlimit:4;stroke-dasharray:none;stroke-opacity:1" id="path8545" d="M 13.503812,42.386416 C 22.419204,47.640846 34.123812,42.586734 34.123812,42.586734 L 34.685714,42.410083"/><path style="fill:none;fill-rule:evenodd;stroke:#000;stroke-width:1.17030442;stroke-linecap:round;stroke-linejoin:round;marker-end:url(#Arrow1Send);stroke-miterlimit:4;stroke-dasharray:none;stroke-opacity:1" id="path11455" d="M 13.266777,27.657211 C 18,18.494097 18,18.494097 18,18.494097 L 18,18.494097"/><path id="path11457" d="M 27.954225,17.954225 C 34.195079,27.451426 34.195079,27.451426 34.195079,27.451426 L 34.195079,27.451426" style="fill:none;fill-rule:evenodd;stroke:#000;stroke-width:1.10845065;stroke-linecap:round;stroke-linejoin:round;marker-end:url(#Arrow1Send);stroke-miterlimit:4;stroke-dasharray:none;stroke-opacity:1"/><path style="fill:#fff;fill-opacity:1;fill-rule:evenodd;stroke:none;stroke-width:.75;stroke-linecap:round;stroke-linejoin:round;stroke-miterlimit:4;stroke-dasharray:none;stroke-opacity:1" id="path12559" d="M 35.391667,1.4749991 L 46.591667,1.2749991 L 46.591667,12.074999 L 35.391667,1.4749991 z"/><path id="path12561" d="M 46.2,12.466666 L 35,12.666666 L 35,1.8666666 L 46.2,12.466666 z" transform="matrix(0.9768985,5.0831837e-3,-5.0831837e-3,0.9768985,1.0362607,-0.1058455)" style="fill:#000;fill-opacity:1;fill-rule:evenodd;stroke:#000;stroke-width:.75;stroke-linecap:round;stroke-linejoin:round;stroke-miterlimit:4;stroke-dasharray:none;stroke-opacity:1;filter:url(#filter12573)"/><path style="fill:#d3d7cf;fill-rule:evenodd;stroke:none;stroke-width:.5;stroke-linecap:round;stroke-linejoin:round;stroke-miterlimit:4;stroke-dasharray:none;stroke-opacity:1" id="path12563" d="M 46.634297,12.08703 L 35.1666,12.222295 L 35.233611,1.1653561 L 46.634297,12.08703 z"/></g></svg>