<svg xmlns="http://www.w3.org/2000/svg" xmlns:svg="http://www.w3.org/2000/svg" xmlns:xlink="http://www.w3.org/1999/xlink" id="svg3815" width="128" height="128" version="1.0"><defs id="defs3817"><linearGradient id="linearGradient4191"><stop id="stop4193" offset="0" style="stop-color:#000;stop-opacity:1"/><stop id="stop4195" offset="1" style="stop-color:#000;stop-opacity:0"/></linearGradient><linearGradient id="linearGradient12513" x1="350.716" x2="358.852" y1="336.371" y2="327.807" gradientUnits="userSpaceOnUse" xlink:href="#linearGradient4191"/><linearGradient id="linearGradient12511" x1="110.05" x2="103.691" y1="138.239" y2="145.336" gradientTransform="matrix(1.01816, -0.0317945, 0.0306403, 0.981203, 248.5, 191.289)" gradientUnits="userSpaceOnUse" xlink:href="#linearGradient1045"/><linearGradient id="linearGradient12509" x1="42.498" x2="54.322" y1="103.573" y2="167.944" gradientTransform="matrix(1.18793, -0.0352644, 0.0251894, 0.766823, 265.958, 191.036)" gradientUnits="userSpaceOnUse" xlink:href="#linearGradient1045"/><linearGradient id="linearGradient1045"><stop style="stop-color:#fff;stop-opacity:.74902" id="stop1046" offset="0"/><stop style="stop-color:#fff;stop-opacity:0" id="stop1047" offset="1"/></linearGradient><linearGradient id="linearGradient12507" x1="57.668" x2="60.491" y1="84.017" y2="111.238" gradientTransform="matrix(1.14816, -0.0340839, 0.030664, 0.933483, 252.432, 191.061)" gradientUnits="userSpaceOnUse" xlink:href="#linearGradient1045"/><linearGradient id="linearGradient1439"><stop style="stop-color:#fff;stop-opacity:.57047" id="stop1440" offset="0"/><stop style="stop-color:#96b0c6;stop-opacity:.899329" id="stop1441" offset="1"/></linearGradient><radialGradient id="radialGradient12505" cx="61.564" cy="105.939" r="27.959" fx="69.987" fy="90.419" gradientTransform="matrix(1.17672, -0.0657059, 0.0622919, 1.00815, 242.272, 193.298)" gradientUnits="userSpaceOnUse" xlink:href="#linearGradient1439"/><filter id="filter4141"><feGaussianBlur id="feGaussianBlur4143" stdDeviation="1.089"/></filter><linearGradient id="linearGradient4145"><stop id="stop4147" offset="0" style="stop-color:#000;stop-opacity:1"/><stop id="stop4149" offset="1" style="stop-color:#000;stop-opacity:0"/></linearGradient><linearGradient id="linearGradient12503" x1="427.796" x2="308.884" y1="418.59" y2="339.369" gradientTransform="translate(-15.8443, -42.8224)" gradientUnits="userSpaceOnUse" xlink:href="#linearGradient4145"/><filter id="filter3530"><feGaussianBlur id="feGaussianBlur3532" stdDeviation="1.017"/></filter><linearGradient id="linearGradient3534"><stop style="stop-color:#fff;stop-opacity:1" id="stop3536" offset="0"/><stop style="stop-color:#fff;stop-opacity:0" id="stop3538" offset="1"/></linearGradient><linearGradient id="linearGradient12501" x1="81.349" x2="114.705" y1="55.915" y2="140.302" gradientTransform="translate(-549.102, -163.201)" gradientUnits="userSpaceOnUse" xlink:href="#linearGradient3534"/><filter id="filter3500"><feGaussianBlur id="feGaussianBlur3502" stdDeviation="1.021"/></filter><linearGradient id="linearGradient3488"><stop style="stop-color:#000;stop-opacity:1" id="stop3490" offset="0"/><stop style="stop-color:#000;stop-opacity:0" id="stop3492" offset="1"/></linearGradient><linearGradient id="linearGradient12499" x1="75.485" x2="150.18" y1="216.269" y2="78.338" gradientTransform="translate(-549.102, -163.201)" gradientUnits="userSpaceOnUse" xlink:href="#linearGradient3488"/><linearGradient id="linearGradient3428"><stop style="stop-color:#fff;stop-opacity:1" id="stop3430" offset="0"/><stop style="stop-color:#fff;stop-opacity:0" id="stop3432" offset="1"/></linearGradient><linearGradient id="linearGradient12497" x1="150.073" x2="153.635" y1="69.702" y2="103.835" gradientTransform="translate(-549.102, -163.201)" gradientUnits="userSpaceOnUse" xlink:href="#linearGradient3428"/><linearGradient id="linearGradient3413"><stop style="stop-color:#000;stop-opacity:1" id="stop3415" offset="0"/><stop style="stop-color:#000;stop-opacity:0" id="stop3417" offset="1"/></linearGradient><linearGradient id="linearGradient12495" x1="-75.391" x2="127.222" y1="321.585" y2="102.695" gradientTransform="translate(-549.102, -163.201)" gradientUnits="userSpaceOnUse" xlink:href="#linearGradient3413"/><linearGradient id="linearGradient3468"><stop style="stop-color:#d8d8d8;stop-opacity:1" id="stop3470" offset="0"/><stop id="stop3476" offset=".225" style="stop-color:#f0f0f0;stop-opacity:1"/><stop style="stop-color:#fff;stop-opacity:1" id="stop3478" offset=".468"/><stop id="stop3480" offset=".763" style="stop-color:#f3f3f3;stop-opacity:1"/><stop style="stop-color:#d6d6d6;stop-opacity:1" id="stop3472" offset="1"/></linearGradient><linearGradient id="linearGradient12493" x1="198.593" x2="58.949" y1="97.137" y2="147.255" gradientTransform="translate(-549.102, -163.201)" gradientUnits="userSpaceOnUse" xlink:href="#linearGradient3468"/><linearGradient id="linearGradient3889"><stop id="stop3891" offset="0" style="stop-color:#e1b73f;stop-opacity:.584314"/><stop id="stop3893" offset="1" style="stop-color:#aa7d19;stop-opacity:1"/></linearGradient><linearGradient id="linearGradient12491" x1="215.035" x2="47.782" y1="74.194" y2="162.966" gradientTransform="translate(-549.102, -163.201)" gradientUnits="userSpaceOnUse" xlink:href="#linearGradient3889"/><linearGradient id="linearGradient3883"><stop id="stop3885" offset="0" style="stop-color:#ffffda;stop-opacity:.6"/><stop id="stop3887" offset="1" style="stop-color:#c5a100;stop-opacity:.714286"/></linearGradient><linearGradient id="linearGradient12489" x1="664.32" x2="255.137" y1="393.513" y2="778.665" gradientTransform="matrix(0.314576, 0.0330998, -0.0317028, 0.284888, -530.57, -223.102)" gradientUnits="userSpaceOnUse" xlink:href="#linearGradient3883"/><linearGradient id="linearGradient3548"><stop style="stop-color:#fff;stop-opacity:1" id="stop3550" offset="0"/><stop style="stop-color:#fff;stop-opacity:0" id="stop3552" offset="1"/></linearGradient><linearGradient id="linearGradient12487" x1="78.742" x2="26.839" y1="77.996" y2="35.083" gradientTransform="translate(-529.082, -219.589)" gradientUnits="userSpaceOnUse" xlink:href="#linearGradient3548"/><filter id="filter3342" width="1.026" height="1.354" x="-.013" y="-.177"><feGaussianBlur id="feGaussianBlur3344" stdDeviation=".74"/></filter><linearGradient id="linearGradient3354"><stop style="stop-color:#fff;stop-opacity:1" id="stop3356" offset="0"/><stop style="stop-color:#fff;stop-opacity:0" id="stop3358" offset="1"/></linearGradient><linearGradient id="linearGradient12485" x1="122.183" x2="50.208" y1="38.275" y2="94.39" gradientTransform="translate(-549.102, -163.201)" gradientUnits="userSpaceOnUse" xlink:href="#linearGradient3354"/><filter id="filter3384" width="1.238" height="1.042" x="-.119" y="-.021"><feGaussianBlur id="feGaussianBlur3386" stdDeviation=".816"/></filter><linearGradient id="linearGradient3368"><stop style="stop-color:#000;stop-opacity:1" id="stop3370" offset="0"/><stop style="stop-color:#000;stop-opacity:0" id="stop3372" offset="1"/></linearGradient><linearGradient id="linearGradient12483" x1="-52.615" x2="-89.169" y1="111.334" y2="-160.227" gradientTransform="matrix(1.0011, 0, 0, 0.977144, -428.227, -61.4897)" gradientUnits="userSpaceOnUse" xlink:href="#linearGradient3368"/><linearGradient id="linearGradient3445"><stop style="stop-color:#fff;stop-opacity:1" id="stop3447" offset="0"/><stop style="stop-color:#fff;stop-opacity:0" id="stop3449" offset="1"/></linearGradient><linearGradient id="linearGradient12481" x1="79.246" x2="140.073" y1="-126.403" y2="166.59" gradientTransform="matrix(1, 0, 0, 0.663418, -549.102, -146.131)" gradientUnits="userSpaceOnUse" xlink:href="#linearGradient3445"/><linearGradient id="linearGradient3871"><stop style="stop-color:#d0ac44;stop-opacity:1" id="stop3873" offset="0"/><stop style="stop-color:#aa7d19;stop-opacity:1" id="stop3875" offset="1"/></linearGradient><linearGradient id="linearGradient12479" x1="46.211" x2="115.257" y1="40.434" y2="167.014" gradientTransform="translate(-549.102, -163.201)" gradientUnits="userSpaceOnUse" xlink:href="#linearGradient3871"/><linearGradient id="linearGradient3877"><stop id="stop3879" offset="0" style="stop-color:#fed51b;stop-opacity:1"/><stop id="stop3881" offset="1" style="stop-color:#ffffda;stop-opacity:1"/></linearGradient><linearGradient id="linearGradient12477" x1="218.059" x2="274.425" y1="352.406" y2="77.316" gradientTransform="matrix(0.305945, -0.0295863, 0.0422292, 0.311153, -530.129, -128.337)" gradientUnits="userSpaceOnUse" xlink:href="#linearGradient3877"/></defs><metadata id="metadata3820"/><g id="layer1" transform="translate(-778.857, -402.648)"><g id="g12023" transform="matrix(0.8611, 0, 0, 0.8611, 1519.38, 869.201)"><g id="g12025" transform="translate(-0.590524, -4.3187)"><g id="g12027" transform="matrix(0.767098, 0, 0, 1, -459.596, -399.857)"><path id="path12029" d="M -506.24217,-108.72388 L -463.96104,-112.81265 C -461.07235,-113.08237 -459.71029,-112.05976 -459.26337,-109.47742 L -458.52296,-104.31152 L -372.85676,-112.59583 C -371.37958,-112.73868 -370.02623,-111.64424 -369.82235,-110.14192 L -359.14929,-31.500818 C -358.9454,-29.998498 -359.97046,-28.674058 -361.44763,-28.531208 L -493.62379,-15.749168 C -495.10096,-15.606318 -496.45431,-16.700768 -496.6582,-18.203088 L -508.54051,-105.75427 C -508.74441,-107.25658 -507.71935,-108.58103 -506.24217,-108.72388 z" style="fill:url(#linearGradient12477) #000;fill-opacity:1;fill-rule:nonzero;stroke:url(#linearGradient12479) #000;stroke-width:1.5;stroke-linecap:butt;stroke-miterlimit:4;stroke-dasharray:none;stroke-dashoffset:0;stroke-opacity:1"/><path id="path12031" d="M -462.97698,-112.48281 C -463.29155,-112.48758 -463.61589,-112.48445 -463.97698,-112.46208 L -506.25823,-109.74621 C -507.73541,-109.65144 -508.77463,-108.77335 -508.57073,-107.77669 L -500.98612,-68.946895 C -490.3678,-75.412584 -475.55251,-86.064051 -454.44573,-87.957069 C -413.19086,-91.618705 -391.54498,-98.700293 -369.74376,-103.1596 L -369.85198,-110.67914 C -370.05586,-111.67581 -371.40606,-112.41172 -372.88323,-112.31696 L -458.53948,-106.82302 L -459.28948,-110.24378 C -459.68053,-111.7428 -460.77496,-112.44941 -462.97698,-112.48281 z" style="opacity:.321138;fill:url(#linearGradient12481) #000;fill-opacity:1;fill-rule:nonzero;stroke:none;stroke-width:1.5;stroke-linecap:butt;stroke-miterlimit:4;stroke-dasharray:none;stroke-dashoffset:0;stroke-opacity:1"/><path id="path12033" d="M -492.3596,-17.090788 C -493.83839,-16.951208 -495.19324,-18.020638 -495.39735,-19.488628 L -507.29272,-105.0387 C -507.49685,-106.50667 -506.47066,-107.80085 -504.99185,-107.94043" style="fill:none;fill-opacity:1;fill-rule:nonzero;stroke:url(#linearGradient12483) #000;stroke-width:1.48357;stroke-linecap:butt;stroke-miterlimit:4;stroke-dasharray:none;stroke-dashoffset:0;stroke-opacity:1;filter:url(#filter3384)"/><path id="path12035" d="M -507.12798,-107.50386 L -464.84685,-111.59264 C -461.95816,-111.86235 -460.5961,-110.83974 -460.14918,-108.2574 L -459.40877,-103.09151 L -373.74257,-111.37582 C -372.26539,-111.51867 -370.91204,-110.42422 -370.70816,-108.9219" style="fill:none;fill-opacity:1;fill-rule:nonzero;stroke:url(#linearGradient12485) #000;stroke-width:1.5;stroke-linecap:butt;stroke-miterlimit:4;stroke-dasharray:none;stroke-dashoffset:0;stroke-opacity:1;filter:url(#filter3342)"/><rect id="rect12037" width="41.653" height="6.779" x="-490.922" y="-157.329" ry="1.332" transform="matrix(0.994544, -0.104314, 0.104314, 0.994544, 0, 0)" style="opacity:.857724;fill:url(#linearGradient12487) #000;fill-opacity:1;fill-rule:nonzero;stroke:none;stroke-width:.476514;stroke-linecap:butt;stroke-miterlimit:4;stroke-dasharray:none;stroke-dashoffset:0;stroke-opacity:1"/></g><g id="g12039" transform="matrix(0.767098, 0, 0, 1, -460.773, -401.034)"><path id="path12041" d="M -477.40032,-80.856207 L -342.45791,-94.236596 C -340.96502,-94.383839 -340.21936,-93.547653 -340.78602,-92.361755 L -356.52405,-30.600228 C -357.09074,-29.414318 -358.74879,-28.341068 -360.24169,-28.193828 L -493.82464,-15.018648 C -495.31754,-14.871408 -496.06319,-15.707598 -495.49652,-16.893508 L -481.11796,-78.44981 C -480.55128,-79.635707 -478.8932,-80.708969 -477.40032,-80.856207 z" style="fill:url(#linearGradient12489) #000;fill-opacity:1;fill-rule:nonzero;stroke:url(#linearGradient12491) #000;stroke-width:1.5;stroke-linecap:butt;stroke-miterlimit:4;stroke-dasharray:none;stroke-dashoffset:0;stroke-opacity:1"/><path id="path12043" d="M -350.50875,-56.711958 C -394.56805,-52.258608 -452.46288,-46.436738 -487.78999,-43.024458 L -493.69624,-17.805708 C -494.25373,-16.639028 -493.50868,-15.817108 -492.03999,-15.961958 L -360.63375,-28.930708 C -359.16506,-29.075558 -357.535,-30.139018 -356.9775,-31.305708 L -350.50875,-56.711958 z" style="opacity:.804878;fill:url(#linearGradient12493) #000;fill-opacity:1;fill-rule:nonzero;stroke:none;stroke-width:1.5;stroke-linecap:butt;stroke-miterlimit:4;stroke-dasharray:none;stroke-dashoffset:0;stroke-opacity:1"/><path id="path12045" d="M -476.72364,-80.09756 L -343.96932,-93.260984 C -342.50065,-93.40584 -341.76708,-92.583213 -342.32455,-91.416544 L -357.80738,-30.656488 C -358.36489,-29.489798 -359.99605,-28.433948 -361.46474,-28.289098 L -492.88164,-15.327558 C -494.35032,-15.182708 -495.08388,-16.005338 -494.5264,-17.172018 L -480.381,-77.730182 C -479.8235,-78.89685 -478.19231,-79.952709 -476.72364,-80.09756 z" style="opacity:.821138;fill:url(#linearGradient12495) #000;fill-opacity:1;fill-rule:nonzero;stroke:none;stroke-width:1.5;stroke-linecap:butt;stroke-miterlimit:4;stroke-dasharray:none;stroke-dashoffset:0;stroke-opacity:1"/><path id="path12047" d="M -343.13323,-93.481838 L -475.88323,-80.325588 C -477.3519,-80.180737 -478.98198,-79.117257 -479.53948,-77.950588 L -487.63323,-43.325588 C -470.15963,-51.340708 -450.44496,-57.770398 -433.44573,-59.638088 C -395.43261,-63.814536 -369.0427,-66.17379 -343.57073,-83.513088 L -341.50823,-91.638088 C -340.95076,-92.804757 -341.66456,-93.626697 -343.13323,-93.481838 z" style="opacity:.51626;fill:url(#linearGradient12497) #000;fill-opacity:1;fill-rule:nonzero;stroke:none;stroke-width:1.5;stroke-linecap:butt;stroke-miterlimit:4;stroke-dasharray:none;stroke-dashoffset:0;stroke-opacity:1"/><path id="path12049" d="M -357.24772,-31.250098 C -357.80757,-30.102158 -359.44559,-29.063268 -360.92046,-28.920748 L -492.8905,-16.167438 C -494.36537,-16.024908 -495.10202,-16.834328 -494.54219,-17.982268 L -480.33724,-77.567549 C -479.7774,-78.715477 -478.13935,-79.754372 -476.66449,-79.896898" style="fill:none;fill-opacity:1;fill-rule:nonzero;stroke:url(#linearGradient12499) #000;stroke-width:1.46685;stroke-linecap:butt;stroke-miterlimit:4;stroke-dasharray:none;stroke-dashoffset:0;stroke-opacity:1;filter:url(#filter3500)"/><path id="path12051" d="M -478.56891,-79.880323 L -343.62651,-93.260712 C -342.13362,-93.407955 -341.38796,-92.571769 -341.95462,-91.385871 L -357.69265,-29.624348" style="fill:none;fill-opacity:1;fill-rule:nonzero;stroke:url(#linearGradient12501) #000;stroke-width:1.5;stroke-linecap:butt;stroke-miterlimit:4;stroke-dasharray:none;stroke-dashoffset:0;stroke-opacity:1;filter:url(#filter3530)"/></g><g id="g12053" transform="matrix(0.177212, 0, 0, 0.177212, -812.974, -503.413)"><g id="g12055" transform="matrix(5.84736, 0, 0, 5.84736, -1659.6, -1519.09)"><path style="fill:url(#linearGradient12503) #000;fill-opacity:1;fill-rule:evenodd;stroke-width:.5;filter:url(#filter4141)" id="path12057" d="M 316.07229,281.98202 C 315.63381,282.03057 315.20936,282.07832 314.769,282.14937 C 300.67765,284.42297 291.09625,297.46399 293.37475,311.26769 C 295.65325,325.07139 308.92741,334.45442 323.01874,332.18083 C 328.3427,331.32182 333.01614,328.93574 336.6557,325.53676 L 366.34973,347.07289 C 369.4708,346.63914 371.67494,344.52641 372.98664,340.70875 L 341.70648,319.33133 L 341.10485,320.038 C 344.10373,315.08859 345.41873,309.1395 344.4105,303.03136 C 342.20321,289.65902 329.66486,280.47692 316.07229,281.98202 z M 316.18848,283.03862 C 329.20684,281.5971 341.24486,290.40242 343.35891,303.20986 C 345.54114,316.43043 335.05166,328.95168 321.55558,331.12925 C 308.05952,333.30679 296.64223,324.33843 294.45998,311.11785 C 292.27775,297.8973 301.45143,285.37851 314.9475,283.20096 C 315.36925,283.1329 315.76853,283.0851 316.18848,283.03862 z"/><path id="path12059" d="M 344.17328,310.53057 L 373.79046,337.579 C 371.89804,341.45499 369.28988,343.3881 365.98042,343.41755 L 337.96015,316.31927 L 344.17328,310.53057 z" style="fill:#807d74;fill-opacity:1;fill-rule:evenodd;stroke-width:.5"/><path style="opacity:1;fill:#273f57;fill-opacity:.996078;fill-rule:nonzero;stroke:none;stroke-width:.6;stroke-linecap:butt;stroke-miterlimit:4;stroke-dasharray:none;stroke-dashoffset:0;stroke-opacity:.995238" id="path12061" d="M 344.98664,308.53682 C 319.4089,335.23039 286.62945,304.61152 303.94656,279.99626 C 281.47224,306.70317 320.99873,339.23619 344.98664,308.53682 z"/><path id="path12063" d="M 349.29738,294.36408 C 349.73312,307.6292 338.76175,318.73129 324.80771,319.14553 C 310.85366,319.55977 299.17499,309.13005 298.73924,295.86493 C 298.3035,282.59981 309.27487,271.49773 323.22892,271.0835 C 337.18296,270.66926 348.86162,281.09896 349.29738,294.36408 z" style="fill:url(#radialGradient12505) #000;fill-opacity:1;fill-rule:evenodd;stroke:#314e6c;stroke-width:1.13487;stroke-miterlimit:4;stroke-dasharray:none;stroke-opacity:.995238"/><path id="path12065" d="M 334.58464,277.67286 C 338.15575,281.95526 334.39477,290.44924 326.18959,296.63266 C 317.98439,302.81608 308.42681,304.35891 304.85568,300.0765 C 301.28457,295.79411 305.04555,287.30011 313.25074,281.11671 C 321.45593,274.93328 331.01352,273.39044 334.58464,277.67286 z" style="fill:url(#linearGradient12507) #000;fill-opacity:.090909;fill-rule:evenodd;stroke-width:1pt"/><path id="path12067" d="M 310.11078,312.32383 C 324.60507,316.63287 341.96694,307.85651 346.53527,294.10669 C 350.95001,306.68197 323.25481,333.63881 310.11078,312.32383 z" style="fill:url(#linearGradient12509) #000;fill-opacity:.552083;fill-rule:evenodd;stroke-width:1pt"/><path style="fill:url(#linearGradient12511) #000;fill-opacity:.75;fill-rule:evenodd;stroke:none;stroke-width:1pt;stroke-linecap:butt;stroke-linejoin:miter;stroke-opacity:1" id="path12069" d="M 339.59269,316.18967 L 344.21509,311.80715 L 372.18661,337.49967 C 373.4197,340.82815 371.74099,343.18126 366.08596,342.37995 L 339.59269,316.18967 z"/><path style="fill:url(#linearGradient12513) #000;fill-opacity:1;fill-rule:evenodd;stroke:none;stroke-width:1pt;stroke-linecap:butt;stroke-linejoin:miter;stroke-opacity:1" id="path12071" d="M 338.93805,316.8243 L 343.56045,312.44178 L 371.53197,338.1343 C 372.76506,341.46278 371.08635,343.81589 365.43132,343.01458 L 338.93805,316.8243 z"/></g></g></g><rect id="rect12073" width="148.647" height="148.647" x="-859.973" y="-541.811" ry="1.544" style="opacity:1;fill:none;fill-opacity:1;fill-rule:nonzero;stroke:none;stroke-width:1.35284;stroke-linecap:butt;stroke-miterlimit:4;stroke-dasharray:none;stroke-dashoffset:0;stroke-opacity:.714286"/></g></g></svg>