<svg xmlns="http://www.w3.org/2000/svg" xmlns:svg="http://www.w3.org/2000/svg" xmlns:xlink="http://www.w3.org/1999/xlink" id="svg4525" width="572.839" height="561.118" version="1.0"><defs id="defs4527"><linearGradient id="linearGradient4519" x1="349.602" x2="307.887" y1="326.194" y2="456.341" gradientTransform="matrix(0.993235, -0.116122, 0.116122, 0.993235, -28.7192, -14.0065)" gradientUnits="userSpaceOnUse" xlink:href="#linearGradient4454"/><linearGradient id="linearGradient4517" x1="336.346" x2="321.649" y1="336.504" y2="448.712" gradientTransform="matrix(0.997068, 0.0765231, -0.0765231, 0.997068, 44.4115, -82.1762)" gradientUnits="userSpaceOnUse" xlink:href="#linearGradient4240"/><linearGradient id="linearGradient4507" x1="349.602" x2="307.887" y1="326.194" y2="456.341" gradientTransform="matrix(0.993235, -0.116122, 0.116122, 0.993235, -28.7192, -14.0065)" gradientUnits="userSpaceOnUse" xlink:href="#linearGradient4454"/><linearGradient id="linearGradient4505" x1="336.346" x2="321.649" y1="336.504" y2="448.712" gradientTransform="matrix(0.997068, 0.0765231, -0.0765231, 0.997068, 44.4115, -82.1762)" gradientUnits="userSpaceOnUse" xlink:href="#linearGradient4240"/><linearGradient id="linearGradient4454"><stop style="stop-color:#d5d4d0;stop-opacity:1" id="stop4456" offset="0"/><stop id="stop4464" offset=".245" style="stop-color:#f1f1f1;stop-opacity:1"/><stop id="stop4462" offset=".491" style="stop-color:#fff;stop-opacity:1"/><stop style="stop-color:#f0f0f0;stop-opacity:1" id="stop4466" offset=".745"/><stop style="stop-color:#d4d4d4;stop-opacity:1" id="stop4458" offset="1"/></linearGradient><linearGradient id="linearGradient4523" x1="349.602" x2="307.887" y1="326.194" y2="456.341" gradientTransform="matrix(0.993235, -0.116122, 0.116122, 0.993235, -28.7192, -14.0065)" gradientUnits="userSpaceOnUse" xlink:href="#linearGradient4454"/><linearGradient id="linearGradient4240"><stop style="stop-color:#eeeeed;stop-opacity:1" id="stop4242" offset="0"/><stop style="stop-color:#a6a6a6;stop-opacity:1" id="stop4244" offset="1"/></linearGradient><linearGradient id="linearGradient4521" x1="336.346" x2="321.649" y1="336.504" y2="448.712" gradientTransform="matrix(0.997068, 0.0765231, -0.0765231, 0.997068, 44.4115, -82.1762)" gradientUnits="userSpaceOnUse" xlink:href="#linearGradient4240"/><filter id="filter4488"><feGaussianBlur id="feGaussianBlur4490" stdDeviation="1.587"/></filter><linearGradient id="linearGradient4578" x1="336.346" x2="321.649" y1="336.504" y2="448.712" gradientTransform="matrix(0.997068, 0.0765231, -0.0765231, 0.997068, 44.4115, -82.1762)" gradientUnits="userSpaceOnUse" xlink:href="#linearGradient4240"/><linearGradient id="linearGradient4580" x1="349.602" x2="307.887" y1="326.194" y2="456.341" gradientTransform="matrix(0.993235, -0.116122, 0.116122, 0.993235, -28.7192, -14.0065)" gradientUnits="userSpaceOnUse" xlink:href="#linearGradient4454"/><linearGradient id="linearGradient4582" x1="336.346" x2="321.649" y1="336.504" y2="448.712" gradientTransform="matrix(0.997068, 0.0765231, -0.0765231, 0.997068, 44.4115, -82.1762)" gradientUnits="userSpaceOnUse" xlink:href="#linearGradient4240"/><linearGradient id="linearGradient4584" x1="349.602" x2="307.887" y1="326.194" y2="456.341" gradientTransform="matrix(0.993235, -0.116122, 0.116122, 0.993235, -28.7192, -14.0065)" gradientUnits="userSpaceOnUse" xlink:href="#linearGradient4454"/><linearGradient id="linearGradient4586" x1="336.346" x2="321.649" y1="336.504" y2="448.712" gradientTransform="matrix(0.997068, 0.0765231, -0.0765231, 0.997068, 44.4115, -82.1762)" gradientUnits="userSpaceOnUse" xlink:href="#linearGradient4240"/><linearGradient id="linearGradient4588" x1="349.602" x2="307.887" y1="326.194" y2="456.341" gradientTransform="matrix(0.993235, -0.116122, 0.116122, 0.993235, -28.7192, -14.0065)" gradientUnits="userSpaceOnUse" xlink:href="#linearGradient4454"/></defs><metadata id="metadata4530"/><g id="layer1" transform="translate(-22.3646, -33.2978)"><g id="g4564" transform="matrix(0.845382, 0, 0, 0.845382, 43.458, 42.2913)"><g id="g4509" transform="matrix(3.16958, -2.3808, 2.3753, 3.19053, -1633.64, 127.884)"><path style="fill:none;fill-opacity:1;fill-rule:nonzero;stroke:#000;stroke-width:2.95183;stroke-linecap:butt;stroke-miterlimit:0;stroke-dasharray:none;stroke-dashoffset:0;stroke-opacity:1;filter:url(#filter4488)" id="path4511" d="M 311.86303,285.43109 L 390.4829,276.64004 C 390.84408,276.5969 391.1694,276.85432 391.21233,277.21723 L 410.43384,372.05632 C 410.47675,372.41923 410.22056,372.74611 409.85937,372.78924 L 323.41759,383.11282 C 323.05641,383.15597 322.73109,382.89853 322.68817,382.53561 L 311.2886,286.16402 C 311.24566,285.80112 311.50186,285.47423 311.86303,285.43109 z" transform="matrix(0.973422, 0, 0, 0.983699, 9.44114, 5.67726)"/><path style="fill:#fff;fill-opacity:1;fill-rule:nonzero;stroke:url(#linearGradient4578) #000;stroke-width:.8;stroke-linecap:butt;stroke-miterlimit:0;stroke-dasharray:none;stroke-dashoffset:0;stroke-opacity:1" id="path4513" d="M 310.15766,284.32042 L 390.25244,275.40731 C 390.62039,275.36357 390.95181,275.62457 390.99555,275.99252 L 410.57765,372.14842 C 410.62137,372.51637 410.36037,372.84779 409.99241,372.89152 L 321.92898,383.35844 C 321.56103,383.40218 321.2296,383.14117 321.18588,382.77321 L 309.57245,285.06353 C 309.52871,284.69559 309.78972,284.36416 310.15766,284.32042 z"/><path style="fill:url(#linearGradient4580) #000;fill-opacity:1;fill-rule:nonzero;stroke:none;stroke-width:.741558;stroke-linecap:butt;stroke-miterlimit:0;stroke-dasharray:none;stroke-dashoffset:0;stroke-opacity:1" id="path4515" d="M 314.09399,286.83787 L 387.52847,278.67508 C 387.86582,278.63497 388.17037,278.88029 388.21135,279.2251 L 406.39582,369.35961 C 406.43679,369.70446 406.1982,370.01436 405.86086,370.05445 L 325.12193,379.65431 C 324.78456,379.69442 324.48001,379.44909 324.43905,379.10426 L 313.55902,287.5327 C 313.51804,287.18789 313.75665,286.87799 314.09399,286.83787 z"/></g><g id="g4497" transform="matrix(3.56665, -1.73016, 1.72075, 3.58616, -1551.84, -225.387)"><path style="fill:none;fill-opacity:1;fill-rule:nonzero;stroke:#000;stroke-width:2.95183;stroke-linecap:butt;stroke-miterlimit:0;stroke-dasharray:none;stroke-dashoffset:0;stroke-opacity:1;filter:url(#filter4488)" id="path4499" d="M 311.86303,285.43109 L 390.4829,276.64004 C 390.84408,276.5969 391.1694,276.85432 391.21233,277.21723 L 410.43384,372.05632 C 410.47675,372.41923 410.22056,372.74611 409.85937,372.78924 L 323.41759,383.11282 C 323.05641,383.15597 322.73109,382.89853 322.68817,382.53561 L 311.2886,286.16402 C 311.24566,285.80112 311.50186,285.47423 311.86303,285.43109 z" transform="matrix(0.973422, 0, 0, 0.983699, 9.44114, 5.67726)"/><path style="fill:#fff;fill-opacity:1;fill-rule:nonzero;stroke:url(#linearGradient4582) #000;stroke-width:.8;stroke-linecap:butt;stroke-miterlimit:0;stroke-dasharray:none;stroke-dashoffset:0;stroke-opacity:1" id="path4501" d="M 310.15766,284.32042 L 390.25244,275.40731 C 390.62039,275.36357 390.95181,275.62457 390.99555,275.99252 L 410.57765,372.14842 C 410.62137,372.51637 410.36037,372.84779 409.99241,372.89152 L 321.92898,383.35844 C 321.56103,383.40218 321.2296,383.14117 321.18588,382.77321 L 309.57245,285.06353 C 309.52871,284.69559 309.78972,284.36416 310.15766,284.32042 z"/><path style="fill:url(#linearGradient4584) #000;fill-opacity:1;fill-rule:nonzero;stroke:none;stroke-width:.741558;stroke-linecap:butt;stroke-miterlimit:0;stroke-dasharray:none;stroke-dashoffset:0;stroke-opacity:1" id="path4503" d="M 314.09399,286.83787 L 387.52847,278.67508 C 387.86582,278.63497 388.17037,278.88029 388.21135,279.2251 L 406.39582,369.35961 C 406.43679,369.70446 406.1982,370.01436 405.86086,370.05445 L 325.12193,379.65431 C 324.78456,379.69442 324.48001,379.44909 324.43905,379.10426 L 313.55902,287.5327 C 313.51804,287.18789 313.75665,286.87799 314.09399,286.83787 z"/></g><g id="g4492" transform="matrix(4.74722, 0, 0, 4.74722, -1355.82, -1272.2)"><path style="fill:none;fill-opacity:1;fill-rule:nonzero;stroke:#000;stroke-width:2.95183;stroke-linecap:butt;stroke-miterlimit:0;stroke-dasharray:none;stroke-dashoffset:0;stroke-opacity:1;filter:url(#filter4488)" id="path4468" d="M 311.86303,285.43109 L 390.4829,276.64004 C 390.84408,276.5969 391.1694,276.85432 391.21233,277.21723 L 410.43384,372.05632 C 410.47675,372.41923 410.22056,372.74611 409.85937,372.78924 L 323.41759,383.11282 C 323.05641,383.15597 322.73109,382.89853 322.68817,382.53561 L 311.2886,286.16402 C 311.24566,285.80112 311.50186,285.47423 311.86303,285.43109 z" transform="matrix(0.973422, 0, 0, 0.983699, 9.44114, 5.67726)"/><path style="fill:#fff;fill-opacity:1;fill-rule:nonzero;stroke:url(#linearGradient4586) #000;stroke-width:.8;stroke-linecap:butt;stroke-miterlimit:0;stroke-dasharray:none;stroke-dashoffset:0;stroke-opacity:1" id="rect4237" d="M 310.15766,284.32042 L 390.25244,275.40731 C 390.62039,275.36357 390.95181,275.62457 390.99555,275.99252 L 410.57765,372.14842 C 410.62137,372.51637 410.36037,372.84779 409.99241,372.89152 L 321.92898,383.35844 C 321.56103,383.40218 321.2296,383.14117 321.18588,382.77321 L 309.57245,285.06353 C 309.52871,284.69559 309.78972,284.36416 310.15766,284.32042 z"/><path style="fill:url(#linearGradient4588) #000;fill-opacity:1;fill-rule:nonzero;stroke:none;stroke-width:.741558;stroke-linecap:butt;stroke-miterlimit:0;stroke-dasharray:none;stroke-dashoffset:0;stroke-opacity:1" id="path4248" d="M 314.09399,286.83787 L 387.52847,278.67508 C 387.86582,278.63497 388.17037,278.88029 388.21135,279.2251 L 406.39582,369.35961 C 406.43679,369.70446 406.1982,370.01436 405.86086,370.05445 L 325.12193,379.65431 C 324.78456,379.69442 324.48001,379.44909 324.43905,379.10426 L 313.55902,287.5327 C 313.51804,287.18789 313.75665,286.87799 314.09399,286.83787 z"/></g></g></g></svg>