<svg xmlns="http://www.w3.org/2000/svg" xmlns:svg="http://www.w3.org/2000/svg" xmlns:xlink="http://www.w3.org/1999/xlink" id="svg4123" width="308.428" height="234.618" version="1.0"><defs id="defs4125"><linearGradient id="linearGradient12737" x1="81.349" x2="114.705" y1="55.915" y2="140.302" gradientTransform="translate(-549.102, -163.201)" gradientUnits="userSpaceOnUse" xlink:href="#linearGradient3534"/><linearGradient id="linearGradient12735" x1="75.485" x2="150.18" y1="216.269" y2="78.338" gradientTransform="translate(-549.102, -163.201)" gradientUnits="userSpaceOnUse" xlink:href="#linearGradient3488"/><linearGradient id="linearGradient12733" x1="150.073" x2="153.635" y1="69.702" y2="103.835" gradientTransform="translate(-549.102, -163.201)" gradientUnits="userSpaceOnUse" xlink:href="#linearGradient3428"/><linearGradient id="linearGradient12731" x1="-75.391" x2="127.222" y1="321.585" y2="102.695" gradientTransform="translate(-549.102, -163.201)" gradientUnits="userSpaceOnUse" xlink:href="#linearGradient3413"/><linearGradient id="linearGradient12729" x1="198.593" x2="58.949" y1="97.137" y2="147.255" gradientTransform="translate(-549.102, -163.201)" gradientUnits="userSpaceOnUse" xlink:href="#linearGradient3468"/><linearGradient id="linearGradient3805"><stop id="stop3807" offset="0" style="stop-color:#288a29;stop-opacity:1"/><stop id="stop3809" offset="1" style="stop-color:#00e91a;stop-opacity:1"/></linearGradient><linearGradient id="linearGradient12727" x1="-4.734" x2="227.461" y1="184.178" y2="56.956" gradientTransform="translate(-549.102, -163.201)" gradientUnits="userSpaceOnUse" xlink:href="#linearGradient3805"/><linearGradient id="linearGradient3799"><stop id="stop3801" offset="0" style="stop-color:#019300;stop-opacity:.8"/><stop id="stop3803" offset="1" style="stop-color:#7dff85;stop-opacity:.717647"/></linearGradient><linearGradient id="linearGradient12725" x1="664.32" x2="255.137" y1="393.513" y2="778.665" gradientTransform="matrix(0.314576, 0.0330998, -0.0317028, 0.284888, -530.57, -223.102)" gradientUnits="userSpaceOnUse" xlink:href="#linearGradient3799"/><linearGradient id="linearGradient12723" x1="78.742" x2="26.839" y1="77.996" y2="35.083" gradientTransform="translate(-529.082, -219.589)" gradientUnits="userSpaceOnUse" xlink:href="#linearGradient3548"/><linearGradient id="linearGradient12721" x1="122.183" x2="50.208" y1="38.275" y2="94.39" gradientTransform="translate(-549.102, -163.201)" gradientUnits="userSpaceOnUse" xlink:href="#linearGradient3354"/><linearGradient id="linearGradient12719" x1="-52.615" x2="-89.169" y1="111.334" y2="-160.227" gradientTransform="matrix(1.0011, 0, 0, 0.977144, -428.227, -61.4897)" gradientUnits="userSpaceOnUse" xlink:href="#linearGradient3368"/><linearGradient id="linearGradient12717" x1="79.246" x2="140.073" y1="-126.403" y2="166.59" gradientTransform="matrix(1, 0, 0, 0.663418, -549.102, -146.131)" gradientUnits="userSpaceOnUse" xlink:href="#linearGradient3445"/><linearGradient id="linearGradient3811"><stop id="stop3813" offset="0" style="stop-color:#288a2a;stop-opacity:1"/><stop id="stop3815" offset="1" style="stop-color:#00e910;stop-opacity:1"/></linearGradient><linearGradient id="linearGradient12715" x1="46.211" x2="115.257" y1="40.434" y2="167.014" gradientTransform="translate(-549.102, -163.201)" gradientUnits="userSpaceOnUse" xlink:href="#linearGradient3811"/><linearGradient id="linearGradient3793"><stop id="stop3795" offset="0" style="stop-color:#2cc84e;stop-opacity:1"/><stop id="stop3797" offset="1" style="stop-color:#c2ffc8;stop-opacity:1"/></linearGradient><linearGradient id="linearGradient12713" x1="218.059" x2="274.425" y1="352.406" y2="77.316" gradientTransform="matrix(0.305945, -0.0295863, 0.0422292, 0.311153, -530.129, -128.337)" gradientUnits="userSpaceOnUse" xlink:href="#linearGradient3793"/><linearGradient id="linearGradient12763" x1="81.349" x2="114.705" y1="55.915" y2="140.302" gradientTransform="translate(-549.102, -163.201)" gradientUnits="userSpaceOnUse" xlink:href="#linearGradient3534"/><linearGradient id="linearGradient12761" x1="75.485" x2="150.18" y1="216.269" y2="78.338" gradientTransform="translate(-549.102, -163.201)" gradientUnits="userSpaceOnUse" xlink:href="#linearGradient3488"/><linearGradient id="linearGradient12759" x1="148.073" x2="153.635" y1="69.702" y2="100.835" gradientTransform="translate(-549.102, -163.201)" gradientUnits="userSpaceOnUse" xlink:href="#linearGradient3428"/><linearGradient id="linearGradient12757" x1="-75.391" x2="127.222" y1="321.585" y2="102.695" gradientTransform="translate(-549.102, -163.201)" gradientUnits="userSpaceOnUse" xlink:href="#linearGradient3413"/><linearGradient id="linearGradient12755" x1="198.593" x2="58.949" y1="97.137" y2="147.255" gradientTransform="translate(-549.102, -163.201)" gradientUnits="userSpaceOnUse" xlink:href="#linearGradient3468"/><linearGradient id="linearGradient3669"><stop id="stop3671" offset="0" style="stop-color:#8a6b28;stop-opacity:1"/><stop id="stop3673" offset="1" style="stop-color:#e99400;stop-opacity:1"/></linearGradient><linearGradient id="linearGradient12753" x1="-4.734" x2="227.461" y1="184.178" y2="56.956" gradientTransform="translate(-549.102, -163.201)" gradientUnits="userSpaceOnUse" xlink:href="#linearGradient3669"/><linearGradient id="linearGradient3675"><stop id="stop3677" offset="0" style="stop-color:#936200;stop-opacity:.8"/><stop id="stop3679" offset="1" style="stop-color:#ffce7d;stop-opacity:.717647"/></linearGradient><linearGradient id="linearGradient12751" x1="664.32" x2="255.137" y1="393.513" y2="778.665" gradientTransform="matrix(0.314576, 0.0330998, -0.0317028, 0.284888, -530.57, -223.102)" gradientUnits="userSpaceOnUse" xlink:href="#linearGradient3675"/><linearGradient id="linearGradient12749" x1="78.742" x2="26.839" y1="77.996" y2="35.083" gradientTransform="translate(-529.082, -219.589)" gradientUnits="userSpaceOnUse" xlink:href="#linearGradient3548"/><linearGradient id="linearGradient12747" x1="122.183" x2="50.208" y1="38.275" y2="94.39" gradientTransform="translate(-549.102, -163.201)" gradientUnits="userSpaceOnUse" xlink:href="#linearGradient3354"/><linearGradient id="linearGradient12745" x1="-52.615" x2="-89.169" y1="111.334" y2="-160.227" gradientTransform="matrix(1.0011, 0, 0, 0.977144, -428.227, -61.4897)" gradientUnits="userSpaceOnUse" xlink:href="#linearGradient3368"/><linearGradient id="linearGradient12743" x1="79.246" x2="140.073" y1="-126.403" y2="166.59" gradientTransform="matrix(1, 0, 0, 0.663418, -549.102, -146.131)" gradientUnits="userSpaceOnUse" xlink:href="#linearGradient3445"/><linearGradient id="linearGradient3663"><stop id="stop3665" offset="0" style="stop-color:#8a6b28;stop-opacity:1"/><stop id="stop3667" offset="1" style="stop-color:#e99500;stop-opacity:1"/></linearGradient><linearGradient id="linearGradient12741" x1="46.211" x2="115.257" y1="40.434" y2="167.014" gradientTransform="translate(-549.102, -163.201)" gradientUnits="userSpaceOnUse" xlink:href="#linearGradient3663"/><linearGradient id="linearGradient3657"><stop id="stop3659" offset="0" style="stop-color:#ffcd55;stop-opacity:1"/><stop id="stop3661" offset="1" style="stop-color:#ffebc2;stop-opacity:1"/></linearGradient><linearGradient id="linearGradient12739" x1="218.059" x2="274.425" y1="352.406" y2="77.316" gradientTransform="matrix(0.305945, -0.0295863, 0.0422292, 0.311153, -530.129, -128.337)" gradientUnits="userSpaceOnUse" xlink:href="#linearGradient3657"/><linearGradient id="linearGradient12789" x1="81.349" x2="114.705" y1="55.915" y2="140.302" gradientTransform="translate(-549.102, -163.201)" gradientUnits="userSpaceOnUse" xlink:href="#linearGradient3534"/><linearGradient id="linearGradient12787" x1="75.485" x2="150.18" y1="216.269" y2="78.338" gradientTransform="translate(-549.102, -163.201)" gradientUnits="userSpaceOnUse" xlink:href="#linearGradient3488"/><linearGradient id="linearGradient12785" x1="150.073" x2="153.635" y1="69.702" y2="103.835" gradientTransform="translate(-549.102, -163.201)" gradientUnits="userSpaceOnUse" xlink:href="#linearGradient3428"/><linearGradient id="linearGradient12783" x1="-75.391" x2="127.222" y1="321.585" y2="102.695" gradientTransform="translate(-549.102, -163.201)" gradientUnits="userSpaceOnUse" xlink:href="#linearGradient3413"/><linearGradient id="linearGradient12781" x1="198.593" x2="58.949" y1="97.137" y2="147.255" gradientTransform="translate(-549.102, -163.201)" gradientUnits="userSpaceOnUse" xlink:href="#linearGradient3468"/><linearGradient id="linearGradient12779" x1="-4.734" x2="227.461" y1="184.178" y2="56.956" gradientTransform="translate(-549.102, -163.201)" gradientUnits="userSpaceOnUse" xlink:href="#linearGradient3314"/><linearGradient id="linearGradient2407"><stop id="stop2409" offset="0" style="stop-color:#003a93;stop-opacity:.798658"/><stop id="stop2411" offset="1" style="stop-color:#7db1ff;stop-opacity:.718121"/></linearGradient><linearGradient id="linearGradient12777" x1="664.32" x2="255.137" y1="393.513" y2="778.665" gradientTransform="matrix(0.314576, 0.0330998, -0.0317028, 0.284888, -530.57, -223.102)" gradientUnits="userSpaceOnUse" xlink:href="#linearGradient2407"/><linearGradient id="linearGradient12775" x1="78.742" x2="26.839" y1="77.996" y2="35.083" gradientTransform="translate(-529.082, -219.589)" gradientUnits="userSpaceOnUse" xlink:href="#linearGradient3548"/><linearGradient id="linearGradient12773" x1="122.183" x2="50.208" y1="38.275" y2="94.39" gradientTransform="translate(-549.102, -163.201)" gradientUnits="userSpaceOnUse" xlink:href="#linearGradient3354"/><linearGradient id="linearGradient12771" x1="-52.615" x2="-89.169" y1="111.334" y2="-160.227" gradientTransform="matrix(1.0011, 0, 0, 0.977144, -428.227, -61.4897)" gradientUnits="userSpaceOnUse" xlink:href="#linearGradient3368"/><linearGradient id="linearGradient12769" x1="79.246" x2="140.073" y1="-126.403" y2="166.59" gradientTransform="matrix(1, 0, 0, 0.663418, -549.102, -146.131)" gradientUnits="userSpaceOnUse" xlink:href="#linearGradient3445"/><linearGradient id="linearGradient3314"><stop id="stop3316" offset="0" style="stop-color:#283f8a;stop-opacity:1"/><stop id="stop3318" offset="1" style="stop-color:#0089e9;stop-opacity:1"/></linearGradient><linearGradient id="linearGradient12767" x1="46.211" x2="115.257" y1="40.434" y2="167.014" gradientTransform="translate(-549.102, -163.201)" gradientUnits="userSpaceOnUse" xlink:href="#linearGradient3314"/><linearGradient id="linearGradient2395"><stop id="stop2397" offset="0" style="stop-color:#59f;stop-opacity:1"/><stop id="stop2399" offset="1" style="stop-color:#c2dbff;stop-opacity:1"/></linearGradient><linearGradient id="linearGradient12765" x1="218.059" x2="274.425" y1="352.406" y2="77.316" gradientTransform="matrix(0.305945, -0.0295863, 0.0422292, 0.311153, -530.129, -128.337)" gradientUnits="userSpaceOnUse" xlink:href="#linearGradient2395"/><filter id="filter3530"><feGaussianBlur id="feGaussianBlur3532" stdDeviation="1.017"/></filter><linearGradient id="linearGradient3534"><stop id="stop3536" offset="0" style="stop-color:#fff;stop-opacity:1"/><stop id="stop3538" offset="1" style="stop-color:#fff;stop-opacity:0"/></linearGradient><linearGradient id="linearGradient12815" x1="81.349" x2="114.705" y1="55.915" y2="140.302" gradientTransform="translate(-549.102, -163.201)" gradientUnits="userSpaceOnUse" xlink:href="#linearGradient3534"/><filter id="filter3500"><feGaussianBlur id="feGaussianBlur3502" stdDeviation="1.021"/></filter><linearGradient id="linearGradient3488"><stop id="stop3490" offset="0" style="stop-color:#000;stop-opacity:1"/><stop id="stop3492" offset="1" style="stop-color:#000;stop-opacity:0"/></linearGradient><linearGradient id="linearGradient12813" x1="75.485" x2="150.18" y1="216.269" y2="78.338" gradientTransform="translate(-549.102, -163.201)" gradientUnits="userSpaceOnUse" xlink:href="#linearGradient3488"/><linearGradient id="linearGradient3428"><stop id="stop3430" offset="0" style="stop-color:#fff;stop-opacity:1"/><stop id="stop3432" offset="1" style="stop-color:#fff;stop-opacity:0"/></linearGradient><linearGradient id="linearGradient12811" x1="150.073" x2="153.635" y1="69.702" y2="103.835" gradientTransform="translate(-549.102, -163.201)" gradientUnits="userSpaceOnUse" xlink:href="#linearGradient3428"/><linearGradient id="linearGradient3413"><stop id="stop3415" offset="0" style="stop-color:#000;stop-opacity:1"/><stop id="stop3417" offset="1" style="stop-color:#000;stop-opacity:0"/></linearGradient><linearGradient id="linearGradient12809" x1="-75.391" x2="127.222" y1="321.585" y2="102.695" gradientTransform="translate(-549.102, -163.201)" gradientUnits="userSpaceOnUse" xlink:href="#linearGradient3413"/><linearGradient id="linearGradient3468"><stop id="stop3470" offset="0" style="stop-color:#d8d8d8;stop-opacity:1"/><stop id="stop3476" offset=".225" style="stop-color:#f0f0f0;stop-opacity:1"/><stop id="stop3478" offset=".468" style="stop-color:#fff;stop-opacity:1"/><stop id="stop3480" offset=".763" style="stop-color:#f3f3f3;stop-opacity:1"/><stop id="stop3472" offset="1" style="stop-color:#d6d6d6;stop-opacity:1"/></linearGradient><linearGradient id="linearGradient12807" x1="198.593" x2="58.949" y1="97.137" y2="147.255" gradientTransform="translate(-549.102, -163.201)" gradientUnits="userSpaceOnUse" xlink:href="#linearGradient3468"/><linearGradient id="linearGradient11490"><stop id="stop11492" offset="0" style="stop-color:#8a2883;stop-opacity:1"/><stop id="stop11494" offset="1" style="stop-color:#e900de;stop-opacity:1"/></linearGradient><linearGradient id="linearGradient12805" x1="-4.734" x2="227.461" y1="184.178" y2="56.956" gradientTransform="translate(-549.102, -163.201)" gradientUnits="userSpaceOnUse" xlink:href="#linearGradient11490"/><linearGradient id="linearGradient11484"><stop id="stop11486" offset="0" style="stop-color:#930085;stop-opacity:.8"/><stop id="stop11488" offset="1" style="stop-color:#ff7df9;stop-opacity:.717647"/></linearGradient><linearGradient id="linearGradient12803" x1="664.32" x2="255.137" y1="393.513" y2="778.665" gradientTransform="matrix(0.314576, 0.0330998, -0.0317028, 0.284888, -530.57, -223.102)" gradientUnits="userSpaceOnUse" xlink:href="#linearGradient11484"/><linearGradient id="linearGradient3548"><stop id="stop3550" offset="0" style="stop-color:#fff;stop-opacity:1"/><stop id="stop3552" offset="1" style="stop-color:#fff;stop-opacity:0"/></linearGradient><linearGradient id="linearGradient12801" x1="78.742" x2="26.839" y1="77.996" y2="35.083" gradientTransform="translate(-529.082, -219.589)" gradientUnits="userSpaceOnUse" xlink:href="#linearGradient3548"/><filter id="filter3342" width="1.026" height="1.354" x="-.013" y="-.177"><feGaussianBlur id="feGaussianBlur3344" stdDeviation=".74"/></filter><linearGradient id="linearGradient3354"><stop id="stop3356" offset="0" style="stop-color:#fff;stop-opacity:1"/><stop id="stop3358" offset="1" style="stop-color:#fff;stop-opacity:0"/></linearGradient><linearGradient id="linearGradient12799" x1="122.183" x2="50.208" y1="38.275" y2="94.39" gradientTransform="translate(-549.102, -163.201)" gradientUnits="userSpaceOnUse" xlink:href="#linearGradient3354"/><filter id="filter3384" width="1.238" height="1.042" x="-.119" y="-.021"><feGaussianBlur id="feGaussianBlur3386" stdDeviation=".816"/></filter><linearGradient id="linearGradient3368"><stop id="stop3370" offset="0" style="stop-color:#000;stop-opacity:1"/><stop id="stop3372" offset="1" style="stop-color:#000;stop-opacity:0"/></linearGradient><linearGradient id="linearGradient12797" x1="-52.615" x2="-89.169" y1="111.334" y2="-160.227" gradientTransform="matrix(1.0011, 0, 0, 0.977144, -428.227, -61.4897)" gradientUnits="userSpaceOnUse" xlink:href="#linearGradient3368"/><linearGradient id="linearGradient3445"><stop id="stop3447" offset="0" style="stop-color:#fff;stop-opacity:1"/><stop id="stop3449" offset="1" style="stop-color:#fff;stop-opacity:0"/></linearGradient><linearGradient id="linearGradient12795" x1="79.246" x2="140.073" y1="-126.403" y2="166.59" gradientTransform="matrix(1, 0, 0, 0.663418, -549.102, -146.131)" gradientUnits="userSpaceOnUse" xlink:href="#linearGradient3445"/><linearGradient id="linearGradient11472"><stop id="stop11474" offset="0" style="stop-color:#8a2884;stop-opacity:1"/><stop id="stop11476" offset="1" style="stop-color:#e900df;stop-opacity:1"/></linearGradient><linearGradient id="linearGradient12793" x1="46.211" x2="115.257" y1="40.434" y2="167.014" gradientTransform="translate(-549.102, -163.201)" gradientUnits="userSpaceOnUse" xlink:href="#linearGradient11472"/><linearGradient id="linearGradient11478"><stop id="stop11480" offset="0" style="stop-color:#c82cbd;stop-opacity:1"/><stop id="stop11482" offset="1" style="stop-color:#ffc2fa;stop-opacity:1"/></linearGradient><linearGradient id="linearGradient12791" x1="218.059" x2="274.425" y1="352.406" y2="77.316" gradientTransform="matrix(0.305945, -0.0295863, 0.0422292, 0.311153, -530.129, -128.337)" gradientUnits="userSpaceOnUse" xlink:href="#linearGradient11478"/></defs><g id="layer1" transform="translate(-30.2348, -16.9336)"><g id="g12333" transform="matrix(0.8611, 0, 0, 0.8611, 481.385, 370.037)"><g id="g12335" transform="matrix(0.766267, 0, 0, 1, -124.257, -271.81)"><g id="g12337"><path id="path12339" d="M -506.24217,-108.72388 L -463.96104,-112.81265 C -461.07235,-113.08237 -459.71029,-112.05976 -459.26337,-109.47742 L -458.52296,-104.31152 L -372.85676,-112.59583 C -371.37958,-112.73868 -370.02623,-111.64424 -369.82235,-110.14192 L -359.14929,-31.500818 C -358.9454,-29.998498 -359.97046,-28.674058 -361.44763,-28.531208 L -493.62379,-15.749168 C -495.10096,-15.606318 -496.45431,-16.700768 -496.6582,-18.203088 L -508.54051,-105.75427 C -508.74441,-107.25658 -507.71935,-108.58103 -506.24217,-108.72388 z" style="fill:url(#linearGradient12713) #000;fill-opacity:1;fill-rule:nonzero;stroke:url(#linearGradient12715) #000;stroke-width:1.5;stroke-linecap:butt;stroke-miterlimit:4;stroke-dasharray:none;stroke-dashoffset:0;stroke-opacity:1"/><path id="path12341" d="M -462.97698,-112.48281 C -463.29155,-112.48758 -463.61589,-112.48445 -463.97698,-112.46208 L -506.25823,-109.74621 C -507.73541,-109.65144 -508.77463,-108.77335 -508.57073,-107.77669 L -500.98612,-68.946895 C -490.3678,-75.412584 -475.55251,-86.064051 -454.44573,-87.957069 C -413.19086,-91.618705 -391.54498,-98.700293 -369.74376,-103.1596 L -369.85198,-110.67914 C -370.05586,-111.67581 -371.40606,-112.41172 -372.88323,-112.31696 L -458.53948,-106.82302 L -459.28948,-110.24378 C -459.68053,-111.7428 -460.77496,-112.44941 -462.97698,-112.48281 z" style="opacity:.321138;fill:url(#linearGradient12717) #000;fill-opacity:1;fill-rule:nonzero;stroke:none;stroke-width:1.5;stroke-linecap:butt;stroke-miterlimit:4;stroke-dasharray:none;stroke-dashoffset:0;stroke-opacity:1"/><path id="path12343" d="M -492.3596,-17.090788 C -493.83839,-16.951208 -495.19324,-18.020638 -495.39735,-19.488628 L -507.29272,-105.0387 C -507.49685,-106.50667 -506.47066,-107.80085 -504.99185,-107.94043" style="fill:none;fill-opacity:1;fill-rule:nonzero;stroke:url(#linearGradient12719) #000;stroke-width:1.48357;stroke-linecap:butt;stroke-miterlimit:4;stroke-dasharray:none;stroke-dashoffset:0;stroke-opacity:1;filter:url(#filter3384)"/><path id="path12345" d="M -507.12798,-107.50386 L -464.84685,-111.59264 C -461.95816,-111.86235 -460.5961,-110.83974 -460.14918,-108.2574 L -459.40877,-103.09151 L -373.74257,-111.37582 C -372.26539,-111.51867 -370.91204,-110.42422 -370.70816,-108.9219" style="fill:none;fill-opacity:1;fill-rule:nonzero;stroke:url(#linearGradient12721) #000;stroke-width:1.5;stroke-linecap:butt;stroke-miterlimit:4;stroke-dasharray:none;stroke-dashoffset:0;stroke-opacity:1;filter:url(#filter3342)"/><rect id="rect12347" width="41.653" height="6.779" x="-490.922" y="-157.329" ry="1.332" transform="matrix(0.994544, -0.104314, 0.104314, 0.994544, 0, 0)" style="opacity:.857724;fill:url(#linearGradient12723) #000;fill-opacity:1;fill-rule:nonzero;stroke:none;stroke-width:.476514;stroke-linecap:butt;stroke-miterlimit:4;stroke-dasharray:none;stroke-dashoffset:0;stroke-opacity:1"/></g><g id="g12349"><path id="path12351" d="M -477.40032,-80.856207 L -342.45791,-94.236596 C -340.96502,-94.383839 -340.21936,-93.547653 -340.78602,-92.361755 L -356.52405,-30.600228 C -357.09074,-29.414318 -358.74879,-28.341068 -360.24169,-28.193828 L -493.82464,-15.018648 C -495.31754,-14.871408 -496.06319,-15.707598 -495.49652,-16.893508 L -481.11796,-78.44981 C -480.55128,-79.635707 -478.8932,-80.708969 -477.40032,-80.856207 z" style="fill:url(#linearGradient12725) #000;fill-opacity:1;fill-rule:nonzero;stroke:url(#linearGradient12727) #000;stroke-width:1.5;stroke-linecap:butt;stroke-miterlimit:4;stroke-dasharray:none;stroke-dashoffset:0;stroke-opacity:1"/><path id="path12353" d="M -350.50875,-56.711958 C -394.56805,-52.258608 -452.46288,-46.436738 -487.78999,-43.024458 L -493.69624,-17.805708 C -494.25373,-16.639028 -493.50868,-15.817108 -492.03999,-15.961958 L -360.63375,-28.930708 C -359.16506,-29.075558 -357.535,-30.139018 -356.9775,-31.305708 L -350.50875,-56.711958 z" style="opacity:.804878;fill:url(#linearGradient12729) #000;fill-opacity:1;fill-rule:nonzero;stroke:none;stroke-width:1.5;stroke-linecap:butt;stroke-miterlimit:4;stroke-dasharray:none;stroke-dashoffset:0;stroke-opacity:1"/><path id="path12355" d="M -476.72364,-80.09756 L -343.96932,-93.260984 C -342.50065,-93.40584 -341.76708,-92.583213 -342.32455,-91.416544 L -357.80738,-30.656488 C -358.36489,-29.489798 -359.99605,-28.433948 -361.46474,-28.289098 L -492.88164,-15.327558 C -494.35032,-15.182708 -495.08388,-16.005338 -494.5264,-17.172018 L -480.381,-77.730182 C -479.8235,-78.89685 -478.19231,-79.952709 -476.72364,-80.09756 z" style="opacity:.821138;fill:url(#linearGradient12731) #000;fill-opacity:1;fill-rule:nonzero;stroke:none;stroke-width:1.5;stroke-linecap:butt;stroke-miterlimit:4;stroke-dasharray:none;stroke-dashoffset:0;stroke-opacity:1"/><path id="path12357" d="M -343.13323,-93.481838 L -475.88323,-80.325588 C -477.3519,-80.180737 -478.98198,-79.117257 -479.53948,-77.950588 L -487.63323,-43.325588 C -470.15963,-51.340708 -450.44496,-57.770398 -433.44573,-59.638088 C -395.43261,-63.814536 -369.0427,-66.17379 -343.57073,-83.513088 L -341.50823,-91.638088 C -340.95076,-92.804757 -341.66456,-93.626697 -343.13323,-93.481838 z" style="opacity:.51626;fill:url(#linearGradient12733) #000;fill-opacity:1;fill-rule:nonzero;stroke:none;stroke-width:1.5;stroke-linecap:butt;stroke-miterlimit:4;stroke-dasharray:none;stroke-dashoffset:0;stroke-opacity:1"/><path id="path12359" d="M -357.24772,-31.250098 C -357.80757,-30.102158 -359.44559,-29.063268 -360.92046,-28.920748 L -492.8905,-16.167438 C -494.36537,-16.024908 -495.10202,-16.834328 -494.54219,-17.982268 L -480.33724,-77.567549 C -479.7774,-78.715477 -478.13935,-79.754372 -476.66449,-79.896898" style="fill:none;fill-opacity:1;fill-rule:nonzero;stroke:url(#linearGradient12735) #000;stroke-width:1.46685;stroke-linecap:butt;stroke-miterlimit:4;stroke-dasharray:none;stroke-dashoffset:0;stroke-opacity:1;filter:url(#filter3500)"/><path id="path12361" d="M -478.56891,-79.880323 L -343.62651,-93.260712 C -342.13362,-93.407955 -341.38796,-92.571769 -341.95462,-91.385871 L -357.69265,-29.624348" style="fill:none;fill-opacity:1;fill-rule:nonzero;stroke:url(#linearGradient12737) #000;stroke-width:1.5;stroke-linecap:butt;stroke-miterlimit:4;stroke-dasharray:none;stroke-dashoffset:0;stroke-opacity:1;filter:url(#filter3530)"/></g></g><rect id="rect12363" width="148.647" height="148.647" x="-523.923" y="-410.061" ry="1.544" style="opacity:1;fill:none;fill-opacity:1;fill-rule:nonzero;stroke:none;stroke-width:1.35284;stroke-linecap:butt;stroke-miterlimit:4;stroke-dasharray:none;stroke-dashoffset:0;stroke-opacity:.714286"/></g><g id="g12365" transform="matrix(0.8611, 0, 0, 0.8611, 694.734, 399.582)"><g id="g12367" transform="matrix(0.76602, 0, 0, 1, -480.608, -248.897)"><g id="g12369" transform="translate(232.796, -16.6241)"><path id="path12371" d="M -506.24217,-108.72388 L -463.96104,-112.81265 C -461.07235,-113.08237 -459.71029,-112.05976 -459.26337,-109.47742 L -458.52296,-104.31152 L -372.85676,-112.59583 C -371.37958,-112.73868 -370.02623,-111.64424 -369.82235,-110.14192 L -359.14929,-31.500818 C -358.9454,-29.998498 -359.97046,-28.674058 -361.44763,-28.531208 L -493.62379,-15.749168 C -495.10096,-15.606318 -496.45431,-16.700768 -496.6582,-18.203088 L -508.54051,-105.75427 C -508.74441,-107.25658 -507.71935,-108.58103 -506.24217,-108.72388 z" style="fill:url(#linearGradient12739) #000;fill-opacity:1;fill-rule:nonzero;stroke:url(#linearGradient12741) #000;stroke-width:1.5;stroke-linecap:butt;stroke-miterlimit:4;stroke-dasharray:none;stroke-dashoffset:0;stroke-opacity:1"/><path id="path12373" d="M -462.97698,-112.48281 C -463.29155,-112.48758 -463.61589,-112.48445 -463.97698,-112.46208 L -506.25823,-109.74621 C -507.73541,-109.65144 -508.77463,-108.77335 -508.57073,-107.77669 L -500.98612,-68.946895 C -490.3678,-75.412584 -475.55251,-86.064051 -454.44573,-87.957069 C -413.19086,-91.618705 -391.54498,-98.700293 -369.74376,-103.1596 L -369.85198,-110.67914 C -370.05586,-111.67581 -371.40606,-112.41172 -372.88323,-112.31696 L -458.53948,-106.82302 L -459.28948,-110.24378 C -459.68053,-111.7428 -460.77496,-112.44941 -462.97698,-112.48281 z" style="opacity:.321138;fill:url(#linearGradient12743) #000;fill-opacity:1;fill-rule:nonzero;stroke:none;stroke-width:1.5;stroke-linecap:butt;stroke-miterlimit:4;stroke-dasharray:none;stroke-dashoffset:0;stroke-opacity:1"/><path id="path12375" d="M -492.3596,-17.090788 C -493.83839,-16.951208 -495.19324,-18.020638 -495.39735,-19.488628 L -507.29272,-105.0387 C -507.49685,-106.50667 -506.47066,-107.80085 -504.99185,-107.94043" style="fill:none;fill-opacity:1;fill-rule:nonzero;stroke:url(#linearGradient12745) #000;stroke-width:1.48357;stroke-linecap:butt;stroke-miterlimit:4;stroke-dasharray:none;stroke-dashoffset:0;stroke-opacity:1;filter:url(#filter3384)"/><path id="path12377" d="M -507.12798,-107.50386 L -464.84685,-111.59264 C -461.95816,-111.86235 -460.5961,-110.83974 -460.14918,-108.2574 L -459.40877,-103.09151 L -373.74257,-111.37582 C -372.26539,-111.51867 -370.91204,-110.42422 -370.70816,-108.9219" style="fill:none;fill-opacity:1;fill-rule:nonzero;stroke:url(#linearGradient12747) #000;stroke-width:1.5;stroke-linecap:butt;stroke-miterlimit:4;stroke-dasharray:none;stroke-dashoffset:0;stroke-opacity:1;filter:url(#filter3342)"/><rect id="rect12379" width="41.653" height="6.779" x="-490.922" y="-157.329" ry="1.332" transform="matrix(0.994544, -0.104314, 0.104314, 0.994544, 0, 0)" style="opacity:.857724;fill:url(#linearGradient12749) #000;fill-opacity:1;fill-rule:nonzero;stroke:none;stroke-width:.476514;stroke-linecap:butt;stroke-miterlimit:4;stroke-dasharray:none;stroke-dashoffset:0;stroke-opacity:1"/></g><g id="g12381" transform="translate(232.796, -16.6241)"><path id="path12383" d="M -477.40032,-80.856207 L -342.45791,-94.236596 C -340.96502,-94.383839 -340.21936,-93.547653 -340.78602,-92.361755 L -356.52405,-30.600228 C -357.09074,-29.414318 -358.74879,-28.341068 -360.24169,-28.193828 L -493.82464,-15.018648 C -495.31754,-14.871408 -496.06319,-15.707598 -495.49652,-16.893508 L -481.11796,-78.44981 C -480.55128,-79.635707 -478.8932,-80.708969 -477.40032,-80.856207 z" style="fill:url(#linearGradient12751) #000;fill-opacity:1;fill-rule:nonzero;stroke:url(#linearGradient12753) #000;stroke-width:1.5;stroke-linecap:butt;stroke-miterlimit:4;stroke-dasharray:none;stroke-dashoffset:0;stroke-opacity:1"/><path id="path12385" d="M -350.50875,-56.711958 C -394.56805,-52.258608 -452.46288,-46.436738 -487.78999,-43.024458 L -493.69624,-17.805708 C -494.25373,-16.639028 -493.50868,-15.817108 -492.03999,-15.961958 L -360.63375,-28.930708 C -359.16506,-29.075558 -357.535,-30.139018 -356.9775,-31.305708 L -350.50875,-56.711958 z" style="opacity:.804878;fill:url(#linearGradient12755) #000;fill-opacity:1;fill-rule:nonzero;stroke:none;stroke-width:1.5;stroke-linecap:butt;stroke-miterlimit:4;stroke-dasharray:none;stroke-dashoffset:0;stroke-opacity:1"/><path id="path12387" d="M -476.72364,-80.09756 L -343.96932,-93.260984 C -342.50065,-93.40584 -341.76708,-92.583213 -342.32455,-91.416544 L -357.80738,-30.656488 C -358.36489,-29.489798 -359.99605,-28.433948 -361.46474,-28.289098 L -492.88164,-15.327558 C -494.35032,-15.182708 -495.08388,-16.005338 -494.5264,-17.172018 L -480.381,-77.730182 C -479.8235,-78.89685 -478.19231,-79.952709 -476.72364,-80.09756 z" style="opacity:.821138;fill:url(#linearGradient12757) #000;fill-opacity:1;fill-rule:nonzero;stroke:none;stroke-width:1.5;stroke-linecap:butt;stroke-miterlimit:4;stroke-dasharray:none;stroke-dashoffset:0;stroke-opacity:1"/><path id="path12389" d="M -343.13323,-93.481838 L -475.88323,-80.325588 C -477.3519,-80.180737 -478.98198,-79.117257 -479.53948,-77.950588 L -487.63323,-43.325588 C -470.15963,-51.340708 -450.44496,-57.770398 -433.44573,-59.638088 C -395.43261,-63.814536 -369.0427,-66.17379 -343.57073,-83.513088 L -341.50823,-91.638088 C -340.95076,-92.804757 -341.66456,-93.626697 -343.13323,-93.481838 z" style="opacity:.51626;fill:url(#linearGradient12759) #000;fill-opacity:1;fill-rule:nonzero;stroke:none;stroke-width:1.5;stroke-linecap:butt;stroke-miterlimit:4;stroke-dasharray:none;stroke-dashoffset:0;stroke-opacity:1"/><path id="path12391" d="M -357.24772,-31.250098 C -357.80757,-30.102158 -359.44559,-29.063268 -360.92046,-28.920748 L -492.8905,-16.167438 C -494.36537,-16.024908 -495.10202,-16.834328 -494.54219,-17.982268 L -480.33724,-77.567549 C -479.7774,-78.715477 -478.13935,-79.754372 -476.66449,-79.896898" style="fill:none;fill-opacity:1;fill-rule:nonzero;stroke:url(#linearGradient12761) #000;stroke-width:1.46685;stroke-linecap:butt;stroke-miterlimit:4;stroke-dasharray:none;stroke-dashoffset:0;stroke-opacity:1;filter:url(#filter3500)"/><path id="path12393" d="M -478.56891,-79.880323 L -343.62651,-93.260712 C -342.13362,-93.407955 -341.38796,-92.571769 -341.95462,-91.385871 L -357.69265,-29.624348" style="fill:none;fill-opacity:1;fill-rule:nonzero;stroke:url(#linearGradient12763) #000;stroke-width:1.5;stroke-linecap:butt;stroke-miterlimit:4;stroke-dasharray:none;stroke-dashoffset:0;stroke-opacity:1;filter:url(#filter3530)"/></g></g><rect id="rect12395" width="148.647" height="148.647" x="-701.843" y="-403.773" ry="1.544" style="fill:none;fill-opacity:1;fill-rule:nonzero;stroke:none;stroke-width:1.35284;stroke-linecap:butt;stroke-miterlimit:4;stroke-dasharray:none;stroke-dashoffset:0;stroke-opacity:.714286"/></g><g id="g12397" transform="matrix(0.8611, 0, 0, 0.8611, 459.969, 155.418)"><g id="g12399" transform="matrix(0.765915, 0, 0, 1, 40.1517, 59.737)"><g id="g12401"><path id="path12403" d="M -506.24217,-108.72388 L -463.96104,-112.81265 C -461.07235,-113.08237 -459.71029,-112.05976 -459.26337,-109.47742 L -458.52296,-104.31152 L -372.85676,-112.59583 C -371.37958,-112.73868 -370.02623,-111.64424 -369.82235,-110.14192 L -359.14929,-31.500818 C -358.9454,-29.998498 -359.97046,-28.674058 -361.44763,-28.531208 L -493.62379,-15.749168 C -495.10096,-15.606318 -496.45431,-16.700768 -496.6582,-18.203088 L -508.54051,-105.75427 C -508.74441,-107.25658 -507.71935,-108.58103 -506.24217,-108.72388 z" style="fill:url(#linearGradient12765) #000;fill-opacity:1;fill-rule:nonzero;stroke:url(#linearGradient12767) #000;stroke-width:1.5;stroke-linecap:butt;stroke-miterlimit:4;stroke-dasharray:none;stroke-dashoffset:0;stroke-opacity:1"/><path id="path12405" d="M -462.97698,-112.48281 C -463.29155,-112.48758 -463.61589,-112.48445 -463.97698,-112.46208 L -506.25823,-109.74621 C -507.73541,-109.65144 -508.77463,-108.77335 -508.57073,-107.77669 L -500.98612,-68.946895 C -490.3678,-75.412584 -475.55251,-86.064051 -454.44573,-87.957069 C -413.19086,-91.618705 -391.54498,-98.700293 -369.74376,-103.1596 L -369.85198,-110.67914 C -370.05586,-111.67581 -371.40606,-112.41172 -372.88323,-112.31696 L -458.53948,-106.82302 L -459.28948,-110.24378 C -459.68053,-111.7428 -460.77496,-112.44941 -462.97698,-112.48281 z" style="opacity:.321138;fill:url(#linearGradient12769) #000;fill-opacity:1;fill-rule:nonzero;stroke:none;stroke-width:1.5;stroke-linecap:butt;stroke-miterlimit:4;stroke-dasharray:none;stroke-dashoffset:0;stroke-opacity:1"/><path id="path12407" d="M -492.3596,-17.090788 C -493.83839,-16.951208 -495.19324,-18.020638 -495.39735,-19.488628 L -507.29272,-105.0387 C -507.49685,-106.50667 -506.47066,-107.80085 -504.99185,-107.94043" style="fill:none;fill-opacity:1;fill-rule:nonzero;stroke:url(#linearGradient12771) #000;stroke-width:1.48357;stroke-linecap:butt;stroke-miterlimit:4;stroke-dasharray:none;stroke-dashoffset:0;stroke-opacity:1;filter:url(#filter3384)"/><path id="path12409" d="M -507.12798,-107.50386 L -464.84685,-111.59264 C -461.95816,-111.86235 -460.5961,-110.83974 -460.14918,-108.2574 L -459.40877,-103.09151 L -373.74257,-111.37582 C -372.26539,-111.51867 -370.91204,-110.42422 -370.70816,-108.9219" style="fill:none;fill-opacity:1;fill-rule:nonzero;stroke:url(#linearGradient12773) #000;stroke-width:1.5;stroke-linecap:butt;stroke-miterlimit:4;stroke-dasharray:none;stroke-dashoffset:0;stroke-opacity:1;filter:url(#filter3342)"/><rect id="rect12411" width="41.653" height="6.779" x="-490.922" y="-157.329" ry="1.332" transform="matrix(0.994544, -0.104314, 0.104314, 0.994544, 0, 0)" style="opacity:.857724;fill:url(#linearGradient12775) #000;fill-opacity:1;fill-rule:nonzero;stroke:none;stroke-width:.476514;stroke-linecap:butt;stroke-miterlimit:4;stroke-dasharray:none;stroke-dashoffset:0;stroke-opacity:1"/></g><g id="g12413"><path id="path12415" d="M -477.40032,-80.856207 L -342.45791,-94.236596 C -340.96502,-94.383839 -340.21936,-93.547653 -340.78602,-92.361755 L -356.52405,-30.600228 C -357.09074,-29.414318 -358.74879,-28.341068 -360.24169,-28.193828 L -493.82464,-15.018648 C -495.31754,-14.871408 -496.06319,-15.707598 -495.49652,-16.893508 L -481.11796,-78.44981 C -480.55128,-79.635707 -478.8932,-80.708969 -477.40032,-80.856207 z" style="fill:url(#linearGradient12777) #000;fill-opacity:1;fill-rule:nonzero;stroke:url(#linearGradient12779) #000;stroke-width:1.5;stroke-linecap:butt;stroke-miterlimit:4;stroke-dasharray:none;stroke-dashoffset:0;stroke-opacity:1"/><path id="path12417" d="M -350.50875,-56.711958 C -394.56805,-52.258608 -452.46288,-46.436738 -487.78999,-43.024458 L -493.69624,-17.805708 C -494.25373,-16.639028 -493.50868,-15.817108 -492.03999,-15.961958 L -360.63375,-28.930708 C -359.16506,-29.075558 -357.535,-30.139018 -356.9775,-31.305708 L -350.50875,-56.711958 z" style="opacity:.804878;fill:url(#linearGradient12781) #000;fill-opacity:1;fill-rule:nonzero;stroke:none;stroke-width:1.5;stroke-linecap:butt;stroke-miterlimit:4;stroke-dasharray:none;stroke-dashoffset:0;stroke-opacity:1"/><path id="path12419" d="M -476.72364,-80.09756 L -343.96932,-93.260984 C -342.50065,-93.40584 -341.76708,-92.583213 -342.32455,-91.416544 L -357.80738,-30.656488 C -358.36489,-29.489798 -359.99605,-28.433948 -361.46474,-28.289098 L -492.88164,-15.327558 C -494.35032,-15.182708 -495.08388,-16.005338 -494.5264,-17.172018 L -480.381,-77.730182 C -479.8235,-78.89685 -478.19231,-79.952709 -476.72364,-80.09756 z" style="opacity:.821138;fill:url(#linearGradient12783) #000;fill-opacity:1;fill-rule:nonzero;stroke:none;stroke-width:1.5;stroke-linecap:butt;stroke-miterlimit:4;stroke-dasharray:none;stroke-dashoffset:0;stroke-opacity:1"/><path id="path12421" d="M -343.13323,-93.481838 L -475.88323,-80.325588 C -477.3519,-80.180737 -478.98198,-79.117257 -479.53948,-77.950588 L -487.63323,-43.325588 C -470.15963,-51.340708 -450.44496,-57.770398 -433.44573,-59.638088 C -395.43261,-63.814536 -369.0427,-66.17379 -343.57073,-83.513088 L -341.50823,-91.638088 C -340.95076,-92.804757 -341.66456,-93.626697 -343.13323,-93.481838 z" style="opacity:.51626;fill:url(#linearGradient12785) #000;fill-opacity:1;fill-rule:nonzero;stroke:none;stroke-width:1.5;stroke-linecap:butt;stroke-miterlimit:4;stroke-dasharray:none;stroke-dashoffset:0;stroke-opacity:1"/><path id="path12423" d="M -357.24772,-31.250098 C -357.80757,-30.102158 -359.44559,-29.063268 -360.92046,-28.920748 L -492.8905,-16.167438 C -494.36537,-16.024908 -495.10202,-16.834328 -494.54219,-17.982268 L -480.33724,-77.567549 C -479.7774,-78.715477 -478.13935,-79.754372 -476.66449,-79.896898" style="fill:none;fill-opacity:1;fill-rule:nonzero;stroke:url(#linearGradient12787) #000;stroke-width:1.46685;stroke-linecap:butt;stroke-miterlimit:4;stroke-dasharray:none;stroke-dashoffset:0;stroke-opacity:1;filter:url(#filter3500)"/><path id="path12425" d="M -478.56891,-79.880323 L -343.62651,-93.260712 C -342.13362,-93.407955 -341.38796,-92.571769 -341.95462,-91.385871 L -357.69265,-29.624348" style="fill:none;fill-opacity:1;fill-rule:nonzero;stroke:url(#linearGradient12789) #000;stroke-width:1.5;stroke-linecap:butt;stroke-miterlimit:4;stroke-dasharray:none;stroke-dashoffset:0;stroke-opacity:1;filter:url(#filter3530)"/></g></g><rect id="rect12427" width="148.647" height="148.647" x="-359.365" y="-83.08" ry="1.544" style="opacity:1;fill:none;fill-opacity:1;fill-rule:nonzero;stroke:none;stroke-width:1.35284;stroke-linecap:butt;stroke-miterlimit:4;stroke-dasharray:none;stroke-dashoffset:0;stroke-opacity:.714286"/></g><g id="g12429" transform="matrix(0.8611, 0, 0, 0.8611, 661.812, 476.655)"><g id="g12431" transform="matrix(0.766267, 0, 0, 1, -124.257, -271.81)"><g id="g12433"><path id="path12435" d="M -506.24217,-108.72388 L -463.96104,-112.81265 C -461.07235,-113.08237 -459.71029,-112.05976 -459.26337,-109.47742 L -458.52296,-104.31152 L -372.85676,-112.59583 C -371.37958,-112.73868 -370.02623,-111.64424 -369.82235,-110.14192 L -359.14929,-31.500818 C -358.9454,-29.998498 -359.97046,-28.674058 -361.44763,-28.531208 L -493.62379,-15.749168 C -495.10096,-15.606318 -496.45431,-16.700768 -496.6582,-18.203088 L -508.54051,-105.75427 C -508.74441,-107.25658 -507.71935,-108.58103 -506.24217,-108.72388 z" style="fill:url(#linearGradient12791) #000;fill-opacity:1;fill-rule:nonzero;stroke:url(#linearGradient12793) #000;stroke-width:1.5;stroke-linecap:butt;stroke-miterlimit:4;stroke-dasharray:none;stroke-dashoffset:0;stroke-opacity:1"/><path id="path12437" d="M -462.97698,-112.48281 C -463.29155,-112.48758 -463.61589,-112.48445 -463.97698,-112.46208 L -506.25823,-109.74621 C -507.73541,-109.65144 -508.77463,-108.77335 -508.57073,-107.77669 L -500.98612,-68.946895 C -490.3678,-75.412584 -475.55251,-86.064051 -454.44573,-87.957069 C -413.19086,-91.618705 -391.54498,-98.700293 -369.74376,-103.1596 L -369.85198,-110.67914 C -370.05586,-111.67581 -371.40606,-112.41172 -372.88323,-112.31696 L -458.53948,-106.82302 L -459.28948,-110.24378 C -459.68053,-111.7428 -460.77496,-112.44941 -462.97698,-112.48281 z" style="opacity:.321138;fill:url(#linearGradient12795) #000;fill-opacity:1;fill-rule:nonzero;stroke:none;stroke-width:1.5;stroke-linecap:butt;stroke-miterlimit:4;stroke-dasharray:none;stroke-dashoffset:0;stroke-opacity:1"/><path id="path12439" d="M -492.3596,-17.090788 C -493.83839,-16.951208 -495.19324,-18.020638 -495.39735,-19.488628 L -507.29272,-105.0387 C -507.49685,-106.50667 -506.47066,-107.80085 -504.99185,-107.94043" style="fill:none;fill-opacity:1;fill-rule:nonzero;stroke:url(#linearGradient12797) #000;stroke-width:1.48357;stroke-linecap:butt;stroke-miterlimit:4;stroke-dasharray:none;stroke-dashoffset:0;stroke-opacity:1;filter:url(#filter3384)"/><path id="path12441" d="M -507.12798,-107.50386 L -464.84685,-111.59264 C -461.95816,-111.86235 -460.5961,-110.83974 -460.14918,-108.2574 L -459.40877,-103.09151 L -373.74257,-111.37582 C -372.26539,-111.51867 -370.91204,-110.42422 -370.70816,-108.9219" style="fill:none;fill-opacity:1;fill-rule:nonzero;stroke:url(#linearGradient12799) #000;stroke-width:1.5;stroke-linecap:butt;stroke-miterlimit:4;stroke-dasharray:none;stroke-dashoffset:0;stroke-opacity:1;filter:url(#filter3342)"/><rect id="rect12443" width="41.653" height="6.779" x="-490.922" y="-157.329" ry="1.332" transform="matrix(0.994544, -0.104314, 0.104314, 0.994544, 0, 0)" style="opacity:.857724;fill:url(#linearGradient12801) #000;fill-opacity:1;fill-rule:nonzero;stroke:none;stroke-width:.476514;stroke-linecap:butt;stroke-miterlimit:4;stroke-dasharray:none;stroke-dashoffset:0;stroke-opacity:1"/></g><g id="g12445"><path id="path12447" d="M -477.40032,-80.856207 L -342.45791,-94.236596 C -340.96502,-94.383839 -340.21936,-93.547653 -340.78602,-92.361755 L -356.52405,-30.600228 C -357.09074,-29.414318 -358.74879,-28.341068 -360.24169,-28.193828 L -493.82464,-15.018648 C -495.31754,-14.871408 -496.06319,-15.707598 -495.49652,-16.893508 L -481.11796,-78.44981 C -480.55128,-79.635707 -478.8932,-80.708969 -477.40032,-80.856207 z" style="fill:url(#linearGradient12803) #000;fill-opacity:1;fill-rule:nonzero;stroke:url(#linearGradient12805) #000;stroke-width:1.5;stroke-linecap:butt;stroke-miterlimit:4;stroke-dasharray:none;stroke-dashoffset:0;stroke-opacity:1"/><path id="path12449" d="M -350.50875,-56.711958 C -394.56805,-52.258608 -452.46288,-46.436738 -487.78999,-43.024458 L -493.69624,-17.805708 C -494.25373,-16.639028 -493.50868,-15.817108 -492.03999,-15.961958 L -360.63375,-28.930708 C -359.16506,-29.075558 -357.535,-30.139018 -356.9775,-31.305708 L -350.50875,-56.711958 z" style="opacity:.804878;fill:url(#linearGradient12807) #000;fill-opacity:1;fill-rule:nonzero;stroke:none;stroke-width:1.5;stroke-linecap:butt;stroke-miterlimit:4;stroke-dasharray:none;stroke-dashoffset:0;stroke-opacity:1"/><path id="path12451" d="M -476.72364,-80.09756 L -343.96932,-93.260984 C -342.50065,-93.40584 -341.76708,-92.583213 -342.32455,-91.416544 L -357.80738,-30.656488 C -358.36489,-29.489798 -359.99605,-28.433948 -361.46474,-28.289098 L -492.88164,-15.327558 C -494.35032,-15.182708 -495.08388,-16.005338 -494.5264,-17.172018 L -480.381,-77.730182 C -479.8235,-78.89685 -478.19231,-79.952709 -476.72364,-80.09756 z" style="opacity:.821138;fill:url(#linearGradient12809) #000;fill-opacity:1;fill-rule:nonzero;stroke:none;stroke-width:1.5;stroke-linecap:butt;stroke-miterlimit:4;stroke-dasharray:none;stroke-dashoffset:0;stroke-opacity:1"/><path id="path12453" d="M -343.13323,-93.481838 L -475.88323,-80.325588 C -477.3519,-80.180737 -478.98198,-79.117257 -479.53948,-77.950588 L -487.63323,-43.325588 C -470.15963,-51.340708 -450.44496,-57.770398 -433.44573,-59.638088 C -395.43261,-63.814536 -369.0427,-66.17379 -343.57073,-83.513088 L -341.50823,-91.638088 C -340.95076,-92.804757 -341.66456,-93.626697 -343.13323,-93.481838 z" style="opacity:.51626;fill:url(#linearGradient12811) #000;fill-opacity:1;fill-rule:nonzero;stroke:none;stroke-width:1.5;stroke-linecap:butt;stroke-miterlimit:4;stroke-dasharray:none;stroke-dashoffset:0;stroke-opacity:1"/><path id="path12455" d="M -357.24772,-31.250098 C -357.80757,-30.102158 -359.44559,-29.063268 -360.92046,-28.920748 L -492.8905,-16.167438 C -494.36537,-16.024908 -495.10202,-16.834328 -494.54219,-17.982268 L -480.33724,-77.567549 C -479.7774,-78.715477 -478.13935,-79.754372 -476.66449,-79.896898" style="fill:none;fill-opacity:1;fill-rule:nonzero;stroke:url(#linearGradient12813) #000;stroke-width:1.46685;stroke-linecap:butt;stroke-miterlimit:4;stroke-dasharray:none;stroke-dashoffset:0;stroke-opacity:1;filter:url(#filter3500)"/><path id="path12457" d="M -478.56891,-79.880323 L -343.62651,-93.260712 C -342.13362,-93.407955 -341.38796,-92.571769 -341.95462,-91.385871 L -357.69265,-29.624348" style="fill:none;fill-opacity:1;fill-rule:nonzero;stroke:url(#linearGradient12815) #000;stroke-width:1.5;stroke-linecap:butt;stroke-miterlimit:4;stroke-dasharray:none;stroke-dashoffset:0;stroke-opacity:1;filter:url(#filter3530)"/></g></g><rect id="rect12459" width="148.647" height="148.647" x="-523.923" y="-410.061" ry="1.544" style="opacity:1;fill:none;fill-opacity:1;fill-rule:nonzero;stroke:none;stroke-width:1.35284;stroke-linecap:butt;stroke-miterlimit:4;stroke-dasharray:none;stroke-dashoffset:0;stroke-opacity:.714286"/></g></g></svg>