<svg xmlns="http://www.w3.org/2000/svg" xmlns:xlink="http://www.w3.org/1999/xlink" id="svg1" width="210mm" height="297mm"><defs id="defs3"><linearGradient id="linearGradient604"><stop style="stop-color:#838383;stop-opacity:1" id="stop605" offset="0"/><stop style="stop-color:#2c2c2c;stop-opacity:1" id="stop606" offset="1"/></linearGradient><linearGradient id="linearGradient598"><stop style="stop-color:#e1dedd;stop-opacity:.866071" id="stop599" offset="0"/><stop style="stop-color:#2c2c2c;stop-opacity:1" id="stop600" offset="1"/></linearGradient><linearGradient id="linearGradient593"><stop style="stop-color:#fff9db;stop-opacity:.732143" id="stop594" offset="0"/><stop style="stop-color:#2c2c2c;stop-opacity:1" id="stop595" offset="1"/></linearGradient><linearGradient id="linearGradient586"><stop style="stop-color:#6e6969;stop-opacity:1" id="stop587" offset="0"/><stop style="stop-color:#2c2c2c;stop-opacity:1" id="stop588" offset="1"/></linearGradient><linearGradient id="linearGradient578"><stop style="stop-color:#fff2bc;stop-opacity:1" id="stop579" offset="0"/><stop style="stop-color:#83560b;stop-opacity:1" id="stop580" offset="1"/></linearGradient><linearGradient id="linearGradient581" x1=".431" x2=".508" y1=".359" y2=".422" xlink:href="#linearGradient578"/><radialGradient id="radialGradient582" cx=".5" cy=".5" r=".5" fx=".5" fy=".5" xlink:href="#linearGradient578"/><linearGradient id="linearGradient590" x1=".531" x2="1.082" y1=".258" y2=".703" xlink:href="#linearGradient593"/><linearGradient id="linearGradient592" x1=".196" x2=".32" y1=".492" y2=".539" xlink:href="#linearGradient586"/><linearGradient id="linearGradient597" x1=".493" x2=".667" y1=".258" y2=".383" xlink:href="#linearGradient598"/><linearGradient id="linearGradient603" x1=".831" x2=".438" y1=".375" y2=".109" xlink:href="#linearGradient604"/></defs><path style="font-size:12;fill:url(#linearGradient592);fill-rule:evenodd;stroke:#636363;stroke-width:.875169pt;stroke-opacity:1" id="path591" d="M 195.61968 92.553535 C 177.84467 142.28799 155.38721 244.3305 150.09932 273.61345 C 147.75344 293.49135 177.74077 311.12726 204.50724 304.19414 C 213.55512 302.71038 214.90857 296.46832 262.68806 207.93583 C 265.68395 202.40422 315.1622 110.69777 320.10858 68.733935 C 323.2225 41.686614 286.93654 21.079889 264.14706 17.756632 C 245.24492 14.96192 231.7056 17.759182 220.51168 28.099765 C 213.79093 38.23726 204.19303 66.092184 195.61968 92.553535 z"/><path style="fill:url(#linearGradient581);fill-rule:evenodd;stroke:#727069;stroke-opacity:1;stroke-width:1pt;stroke-linejoin:miter;stroke-linecap:butt;fill-opacity:1" id="hrot" d="M 106.5625 481.11218 C 105.625 480.48718 136.875 413.61218 185.625 397.36218 C 175.3125 332.36218 201.5625 303.61218 202.8125 299.23718 C 195.3125 278.29968 182.1875 272.04968 171.25 272.04968 C 152.8125 272.67468 157.5 280.17468 155.625 282.67468 C 147.8125 312.04968 128.4375 354.86218 125.9375 362.36218 C 118.02083 377.98718 107.60417 450.48718 103.75 481.42468 L 106.5625 481.11218 z"/><path style="font-size:12;fill:#665123;fill-opacity:1;fill-rule:evenodd;stroke:none;stroke-width:1.25097;stroke-dasharray:none" id="path583" d="M 151.875000 355.487183 A 6.250000 9.687500 0 1 0 139.375000,355.487183 A 6.25 9.6875 0 1 0 151.875 355.487 L 145.625000 355.487183 z" transform="matrix(0.455617,0.207014,-0.346305,0.855964,186.9678,38.89589)"/><path style="fill:#665123;fill-rule:evenodd;stroke:#665123;stroke-opacity:1;stroke-width:.625;stroke-linejoin:miter;stroke-linecap:butt;fill-opacity:1;stroke-dasharray:none" id="path585" d="M 127.64515 381.02065 L 126.74671 380.5519 C 125.7133 380.01274 107.76042 465.59135 105.3125 480.79968 C 107.60417 464.8101 123.89361 388.14189 127.64515 381.02065 z"/><path style="fill:url(#linearGradient590);fill-rule:evenodd;stroke:none;stroke-opacity:1;stroke-width:1pt;stroke-linejoin:miter;stroke-linecap:butt;fill-opacity:1" id="path589" d="M 149.375 405.38914 C 158.87089 395.16458 162.54672 387.49618 172.96157 383.66197 C 166.83519 357.46156 182.20141 322.15642 194.0625 289.54764 L 190.192 284.65155 C 184.96263 296.13579 155.96086 377.27162 149.375 405.38914 z"/><path style="fill:url(#linearGradient597);fill-rule:evenodd;stroke:none;stroke-opacity:1;stroke-width:1pt;stroke-linejoin:miter;stroke-linecap:butt;fill-opacity:1" id="path596" d="M 171.53845 263.79948 C 199.23347 178.06278 258.96622 50.360608 283.9249 45.189969 C 291.92013 43.533614 249.96386 22.283303 236.94582 41.502785 C 206.20536 101.51252 183.61818 186.7543 160.93184 266.00919 C 164.02544 263.9468 167.56097 263.65217 171.53845 263.79948 z"/><path style="fill:#aeaeae;fill-rule:evenodd;stroke:none;stroke-opacity:1;stroke-width:1pt;stroke-linejoin:miter;stroke-linecap:butt;fill-opacity:1" id="path601" d="M 203.125 277.98718 C 208.75 285.79968 212.5 290.79968 209.375 297.98718 C 216.5625 291.73718 213.125 284.23718 203.125 277.98718 z"/><path style="fill:url(#linearGradient603);fill-rule:evenodd;stroke:none;stroke-opacity:1;stroke-width:1pt;stroke-linejoin:miter;stroke-linecap:butt;fill-opacity:1" id="path602" d="M 218.4375 288.92468 C 238.64583 251.73718 266.24483 201.74924 277.31694 179.18356 C 284.73057 164.97482 311.21784 111.61917 320.03141 71.491308 C 321.72641 55.553808 314.71584 44.205774 303.67417 36.393274 C 301.695 62.226607 282.14003 121.02794 263.75 166.42468 C 250.60071 199.19688 231.66667 238.82051 212.5 275.48718 C 217.70833 280.27885 213.85417 281.00801 218.4375 288.92468 z"/><path style="fill:#b99e67;fill-rule:evenodd;stroke:none;stroke-opacity:1;stroke-width:1pt;stroke-linejoin:miter;stroke-linecap:butt;fill-opacity:.46875" id="path607" d="M 172.79921 296.64181 C 158.21513 311.66783 148.49243 318.29695 149.37631 301.94511 L 133.90835 357.18784 L 172.79921 296.64181 z"/></svg>