<svg xmlns="http://www.w3.org/2000/svg" xmlns:xlink="http://www.w3.org/1999/xlink" id="svg1" width="210mm" height="297mm"><defs id="defs3"><linearGradient id="linearGradient665"><stop style="stop-color:#fff;stop-opacity:.285714" id="stop666" offset="0"/><stop style="stop-color:#daecf8;stop-opacity:1" id="stop667" offset="1"/></linearGradient><linearGradient id="linearGradient624"><stop style="stop-color:#b9e5ff;stop-opacity:.419643" id="stop625" offset="0"/><stop style="stop-color:#fff;stop-opacity:1" id="stop626" offset="1"/></linearGradient><linearGradient id="linearGradient619"><stop style="stop-color:#66b8ff;stop-opacity:1" id="stop620" offset="0"/><stop style="stop-color:#00507a;stop-opacity:1" id="stop621" offset="1"/></linearGradient><linearGradient id="linearGradient604"><stop style="stop-color:#838383;stop-opacity:1" id="stop605" offset="0"/><stop style="stop-color:#2c2c2c;stop-opacity:1" id="stop606" offset="1"/></linearGradient><linearGradient id="linearGradient598"><stop style="stop-color:#e1dedd;stop-opacity:.866071" id="stop599" offset="0"/><stop style="stop-color:#2c2c2c;stop-opacity:1" id="stop600" offset="1"/></linearGradient><linearGradient id="linearGradient593"><stop style="stop-color:#fff9db;stop-opacity:.732143" id="stop594" offset="0"/><stop style="stop-color:#2c2c2c;stop-opacity:1" id="stop595" offset="1"/></linearGradient><linearGradient id="linearGradient586"><stop style="stop-color:#6e6969;stop-opacity:1" id="stop587" offset="0"/><stop style="stop-color:#2c2c2c;stop-opacity:1" id="stop588" offset="1"/></linearGradient><linearGradient id="linearGradient578"><stop style="stop-color:#fff2bc;stop-opacity:1" id="stop579" offset="0"/><stop style="stop-color:#83560b;stop-opacity:1" id="stop580" offset="1"/></linearGradient><linearGradient id="linearGradient581" x1=".431" x2=".566" y1=".359" y2=".469" xlink:href="#linearGradient578"/><radialGradient id="radialGradient582" cx=".5" cy=".5" r=".5" fx=".5" fy=".5" xlink:href="#linearGradient578"/><linearGradient id="linearGradient590" x1=".531" x2="1.082" y1=".258" y2=".703" xlink:href="#linearGradient593"/><linearGradient id="linearGradient592" x1=".196" x2=".32" y1=".492" y2=".539" xlink:href="#linearGradient586"/><linearGradient id="linearGradient597" x1=".493" x2=".667" y1=".258" y2=".383" xlink:href="#linearGradient598"/><linearGradient id="linearGradient603" x1=".831" x2=".438" y1=".375" y2=".109" xlink:href="#linearGradient604"/><linearGradient id="linearGradient618" x1=".411" x2=".977" y1=".375" y2=".93" xlink:href="#linearGradient665"/><linearGradient id="linearGradient623" x1=".478" x2=".821" y1=".055" y2=".93" xlink:href="#linearGradient624"/><linearGradient id="linearGradient664" x1=".085" x2=".488" y1=".055" y2=".961" xlink:href="#linearGradient619"/></defs><path style="font-size:12;fill:#060000;fill-opacity:1;fill-rule:evenodd;stroke:#000;stroke-width:1pt" id="path686" d="M 899.793411 228.582779 A 134.350296 81.317284 0 1 0 631.092819,228.582779 A 134.35 81.3173 0 1 0 899.793 228.583 L 765.443115 228.582779 z" transform="matrix(0.546660,0.459928,-0.508911,0.466767,319.9559,-324.0116)"/><path style="font-size:12;fill:url(#linearGradient664);fill-opacity:1;fill-rule:evenodd;stroke:#000;stroke-width:15.3505;stroke-opacity:1;stroke-dasharray:none" id="path653" d="M 711.250000 257.362183 A 370.000000 370.000000 0 1 0 -28.750000,257.362183 A 370 370 0 1 0 711.25 257.362 L 341.250000 257.362183 z" transform="matrix(0.854246,0.000000,0.000000,0.873855,62.54055,163.8050)"/><path style="font-size:12;fill:url(#linearGradient623);fill-opacity:.75;fill-rule:evenodd;stroke:#f6f7f7;stroke-width:.977983pt;stroke-opacity:.392857" id="path622" d="M 314.02616 633.10904 C 314.02616 633.10904 227.78618 496.61739 294.72278 358.70964 C 347.9212 247.85253 364.43212 145.78479 321.16276 73.569808 C 244.31733 83.148787 177.42134 122.4216 144.27654 155.95854 C 94.070726 204.88546 70.047451 256.17907 59.169288 292.03552 C 73.673505 468.84489 315.23484 636.81833 314.02616 633.10904 z"/><path style="font-size:12;fill:url(#linearGradient581);fill-rule:evenodd;stroke:#323232;stroke-width:5.63507" id="hrot" d="M 336.09076 639.8747 C 333.80044 637.73485 448.81194 467.20742 589.40037 444.05202 C 589.83246 260.23343 674.35129 192.615 679.70122 181.10615 C 668.4051 120.03946 635.23858 96.975101 605.30364 92.116806 C 554.56633 85.650572 564.08908 108.41399 557.85521 114.4749 C 523.52259 192.00646 451.62029 301.45609 441.4715 321.02692 C 412.91571 360.59648 352.4433 555.88876 328.25542 639.48716 L 336.09076 639.8747 z"/><path style="font-size:12;fill:#665123;fill-rule:evenodd;stroke-width:1.25097" id="path583" d="M 151.875000 355.487183 A 6.250000 9.687500 0 1 0 139.375000,355.487183 A 6.25 9.6875 0 1 0 151.875 355.487 L 145.625000 355.487183 z" transform="matrix(1.155716,0.773221,-1.325171,2.206503,751.1120,-543.8246)"/><path style="font-size:12;fill:#665123;fill-rule:evenodd;stroke:#665123;stroke-width:1.73912" id="path585" d="M 437.91925 373.2363 L 435.66695 371.54463 C 433.07632 369.59887 346.21199 597.60802 332.80739 638.45776 C 346.12878 595.38431 424.51209 391.20678 437.91925 373.2363 z"/><path style="font-size:12;fill:url(#linearGradient590);fill-rule:evenodd;stroke-width:1pt" id="path589" d="M 486.64859 450.08466 C 517.14565 426.10831 530.58683 406.59541 560.7817 400.64869 C 555.56529 325.67962 613.18616 235.15094 660.02508 150.50056 L 651.59041 135.28034 C 632.21505 164.62538 517.06962 375.47577 486.64859 450.08466 z"/></svg>